<svg width="2559.0000000000005" height="628" xmlns="http://www.w3.org/2000/svg">

 <g id="imagebot_2">
  <path id="imagebot_4" d="M2186.407,527.092C2184.389,533.145 2182.17,538.996 2179.547,544.848L2186.407,527.092zM379.525,544.847C376.902,538.996 374.683,533.144 372.665,527.091L379.525,544.847zM2155.537,527.092L2148.274,544.848C2151.3,539.198 2153.721,533.145 2155.537,527.092zM410.799,544.847L403.535,527.091C405.351,533.145 407.773,539.198 410.799,544.847zM2095.208,387.267C2222.53,454.193 2168.032,632.862 2014.904,587.824C2008.104,560.624 1974.333,573.545 1988.674,592.666C2002.878,610.148 2060.307,614.958 2094.602,607.193C2248.653,574.761 2236.372,266.821 1890.413,316.244L1884.562,317.253C1889.016,330.616 1891.019,346.278 1891.019,359.221C1966.204,347.473 2050.035,363.251 2095.208,387.267zM668.053,359.221C668.053,346.278 670.055,330.616 674.51,317.253L668.659,316.244C322.7,266.822 310.419,574.762 464.469,607.194C498.765,614.959 556.193,610.149 570.397,592.667C584.738,573.545 550.967,560.625 544.167,587.825C391.039,632.863 336.541,454.194 463.863,387.268C509.037,363.251 592.868,347.473 668.053,359.221zM1279.536,627.931C1324.248,629.013 1377.109,617.487 1437.647,587.219C1579.688,514.995 1718.197,398.889 1862.974,364.669C1863.673,356.977 1862.441,335.849 1856.719,322.5C1677.074,360.722 1477.965,559.728 1323.043,589.237C1308.135,592.077 1293.591,594.078 1279.537,594.974C1265.483,594.078 1250.938,592.077 1236.03,589.237C1081.108,559.728 881.999,360.722 702.354,322.5C696.633,335.85 695.4,356.978 696.099,364.669C840.876,398.889 979.384,514.995 1121.426,587.219C1181.963,617.487 1234.824,629.013 1279.536,627.931zM1279.536,269.236C1301.807,268.311 1327.982,275.349 1345.237,282.953C1365.209,291.607 1383.229,303.42 1396.688,312.209C1354.065,354.832 1310.87,365.552 1279.536,359.403C1248.203,365.552 1205.007,354.832 1162.384,312.209C1175.842,303.42 1193.863,291.607 1213.835,282.953C1231.09,275.349 1257.265,268.311 1279.536,269.236zM1279.536,30.177C1368.185,45.696 1446.931,110.822 1432.804,230.897C1427.942,271.01 1417.094,286.99 1409.601,297.48L1409.399,297.48L1408.188,299.094C1353.945,261.124 1310.951,248.682 1279.535,250.939C1248.119,248.682 1205.126,261.124 1150.882,299.094L1149.671,297.48L1149.469,297.48C1141.976,286.989 1131.128,271.01 1126.266,230.897C1112.141,110.821 1190.887,45.696 1279.536,30.177zM1279.536,376.986C1286.695,377.916 1294.471,378.154 1302.866,377.582C1345.072,375.706 1381.789,351.926 1411.417,322.298C1432.524,336.887 1448.864,348.671 1468.719,362.853C1397.811,413.235 1333.674,439.806 1279.536,448.777C1225.398,439.806 1161.261,413.235 1090.353,362.853C1110.208,348.671 1126.548,336.886 1147.655,322.298C1177.283,351.926 1214,375.707 1256.206,377.582C1264.601,378.154 1272.377,377.916 1279.536,376.986zM1279.536,481.137C1342.861,476.827 1418.869,449.613 1504.23,388.074C1543.244,415.084 1568.115,430.723 1592.201,445.174L1608.948,434.884C1602.322,430.868 1571.427,413.577 1519.363,377.178C1976.362,46.248 1944.273,576.145 1660.802,461.113L1642.643,472.21C1713.575,507.676 1810.385,502.874 1864.386,431.453C1904.363,379.483 1896.62,268.961 1783.679,237.958C1677.817,208.72 1570.928,290.828 1483.65,352.159C1450.209,328.327 1439.398,320.448 1423.523,309.384C1510.245,209.32 1466.983,50.984 1322.841,7.741C1308.867,3.775 1294.323,1.223 1279.536,0C1264.749,1.224 1250.205,3.776 1236.231,7.741C1092.089,50.984 1048.827,209.32 1135.549,309.384C1119.674,320.448 1108.863,328.327 1075.422,352.159C988.144,290.829 881.255,208.72 775.393,237.958C662.452,268.961 654.709,379.484 694.686,431.453C748.687,502.874 845.497,507.676 916.429,472.21L898.27,461.113C614.799,576.146 582.711,46.248 1039.709,377.178C987.645,413.577 956.751,430.868 950.124,434.884L966.871,445.174C990.956,430.723 1015.828,415.084 1054.842,388.074C1140.203,449.613 1216.211,476.827 1279.536,481.137z"/>
  <title>imagebot_2</title>
 </g>
</svg>