<?xml version="1.0" encoding="utf-8"?>

<!DOCTYPE svg PUBLIC "-//W3C//DTD SVG 1.1//EN" "http://www.w3.org/Graphics/SVG/1.1/DTD/svg11.dtd">
<svg version="1.1" id="Layer_1" xmlns="http://www.w3.org/2000/svg" xmlns:xlink="http://www.w3.org/1999/xlink" x="0px" y="0px"
	 viewBox="0 0 2699.87 1427.048" enable-background="new 0 0 2699.87 1427.048" xml:space="preserve">
<g>
	<path d="M1276.21,50.604c43.609-10.746,30.794-13.399,97.981-13.188c54.838,7.033,62.949,14.211,75.572,19.427
		c11.574,5.281,24.187,9.139,33.818,17.922c12.696,10.999,28.154,19.29,37.703,33.545c8.947,12.449,20.111,23.449,26.787,37.403
		c28.538-1.861,58.307-0.274,84.355,12.668c101.541,48.789,145.777,166.977,80.716,277.197
		c-20.502,42.982-83.549,101.425-92.262,110.567c-1.368-1.04-4.104-3.064-5.472-4.104c18.505,21.601,103.555,89.976,166.384,149.912
		c28.209-19.317,53.819-42.082,79.649-64.381c-21.999-20.22-41.425-42.984-60.332-65.995
		c-66.099-77.025-47.299-236.716,63.04-243.761c73.589-3.676,146.769,85.81,122.168,169.749
		c-4.258,21.092-33.67,78.275-64.545,113.139c26.431,22.819,54.203,44.079,83.151,63.615c23.038-18.524,46.186-37.293,72.507-51.056
		c14.78-9.74,85.531-43.685,158.805-44.982c67.307-3.48,123.493,9.336,227.208,125.451c-1.724-2.627-3.448-5.226-5.117-7.798
		c25.985-21.36,79.679-70.026,128.051-39.455c57.335,43.108,49.237,97.888,26.486,127.394
		c-13.915,18.854-59.232,39.062-100.033,34.557c-47.976-17.437-30.342-12.603-86.297-66.707
		c-68.101,77.477-121.629,126.751-233.993,118.666c-63.582-3.88-174.255-97.349-224.554-136.177
		c-26.568,24.16-52.342,49.442-74.176,78.062c-11.218,10.644-21.479,22.518-27.553,36.91c8.372-11.683,17.21-23.011,25.884-34.503
		c23.636,29.797,125.744,146.78,83.26,240.396c-15.74,47.062-73.997,80.535-109.938,86.626
		c-75.07,18.332-164.564-139.623-30.316-308.799c-27.142-25.665-55.297-50.208-84.108-73.93
		c-39.291,33.846-75.627,70.866-113.002,106.736c3.831-2.928,7.524-6.047,11.218-9.166c15.789,28.833,71.512,126.424,75.517,204.908
		c0.93,20.028,3.529,40.303-0.465,60.167c-3.53,17.319-5.965,35.214-14.228,51.111c-8.345,15.623-16.772,31.684-29.495,44.271
		c-41.097,37.074-98.309,59.347-153.825,49.168c-4.98,16.171-13.982,30.754-23.175,44.818
		c-27.539,44.299-77.828,71.427-127.832,84.628c-53.245,9.987-112.373,2.079-156.123-31.602
		c-27.799-20.576-48.648-48.785-67.117-77.651c-10.753,2.49-21.369,7.005-32.587,6.129c-10.862-0.739-21.917,0.137-32.587-2.107
		c-19.317-5.883-39.51-10.589-55.954-22.929c-19.399-15.158-37.731-33.107-47.964-55.872c-26.13-54.011-22.491-117.735-4.378-173.58
		c14.748-50.399,46.569-93.357,80.333-132.647c-40.557-38.76-127.906-111.922-162.608-144.823
		c-30.261,30.125-59.182,61.782-85.121,95.737c35.287,38.801,86.882,111.072,101.975,159.516c7.88,21.533,2.025,44.544-0.629,66.461
		c-6.375,11.218-13.38,22.299-21.315,32.423c-13.325,9.057-25.2,22.245-41.89,24.406c-11.109,2.107-22.135,6.703-33.6,4.624
		c-12.285-1.915-25.692-0.274-36.664-7.169c-38.072-21.518-15.786-3.069-49.524-40.741c-6.539-6.649-7.962-16.143-10.862-24.625
		c-3.995-13.982-10.315-27.553-10.89-42.301c-5.273-62.045,10.433-113.338,61.262-166.657
		c-22.994-22.88-25.917-32.771-87.994-88.103c-50.263,31.164-102.632,58.799-156.287,83.616
		c-170.069,82.208-255.906-56.12-282.45-82.522c-57.755,43.634-172.096,47.784-172.841-45.009
		c2.599-34.585,20.794-66.515,45.146-90.538c7.989-4.925,16.307-9.549,25.09-12.997c10.78-0.93,21.944-2.189,32.697-0.794
		c12.012,5.336,24.68,9.741,35.761,16.882c18.715,18.004,39.291,34.42,54.613,55.598c32.658-41.11,63.203-91.06,135.247-119.596
		c47.949-14.724,63.4-5.138,86.489,2.025c73.631,33.75,156.775,104.721,216.099,159.407c35.652-22.874,67.117-51.631,95.409-83.014
		c-35.322-48.067-116.098-145.578-92.262-227.618c14.203-43.972,53.421-98.051,98.719-94.807
		c41.981,0.917,79.849,49.606,94.588,87.282c36.844,87.305,8.252,124.872-7.552,154.865c-5.595,11.056-31.242,47.453-45.611,62.247
		c25.309,28.073,52.561,54.34,79.211,81.154c41.726-43.942,83.616-87.693,125.643-131.307
		c-19.646-25.09-36.801-51.904-54.175-78.554c-6.786-10.945-11.875-22.819-17.785-34.229c-15.322-27.69-23.23-59.292-24.488-90.839
		c-12.417-169.818,126.736-260.494,206.03-228.357c12.203-22.71,32.724-38.689,50.126-57.103
		c9.275-10.616,22.71-15.76,34.448-22.983C1254.13,61.193,1264.117,53.45,1276.21,50.604 M1248.165,95.23
		c-31.219,9.795-58.635,30.316-77.296,57.13c100.354,42.169,103.931,162.432,52.944,262.969
		c40.695,67.256,104.161,123.569,141.704,159.078c32.962-36.94,55.294-56.187,95.6-118.693
		c-43.084-68.829-33.477-107.741-21.533-186.823c4.542-31.848,15.186-63.314,33.818-89.718
		c-30.796-52.295-73.111-91.54-134.453-96.093C1308.333,80.921,1276.648,82.918,1248.165,95.23 M1072.698,172.526
		c-48.074,19.047-199.863,132.362,8.865,370.8c6.531-8.453,58.024-67.724,84.738-116.559
		c-36.468-84.584-57.946-174.106-18.879-258.536C1122.878,161.308,1096.173,162.484,1072.698,172.526 M1558.524,170.146
		c26.233,88.048-4.986,175.969-52.233,254.295c28.729,42.164,64.792,78.937,102.249,113.412
		c24.622-31.434,129.014-131.933,56.474-277.881C1623.86,185.846,1589.095,172.655,1558.524,170.146 M1159.406,172.471
		c-18.223,47.226-11.331,97.506,11.191,144.057c8.154,17.621,15.432,35.706,25.638,52.315
		c19.605-41.692,37.637-87.443,18.688-137.518C1206.138,204.785,1183.702,184.921,1159.406,172.471 M1488.944,213.322
		c-26.871,51.182-22.167,130.329,1.696,185.044C1505.923,355.448,1521.893,303.13,1488.944,213.322 M1815.938,355.244
		c-27.004,29.522-30.965,96.365-5.253,136.669c27.334,32.177,57.705,61.672,89.471,89.417
		c90.239-154.818,6.08-241.467-66.57-237.003C1827.649,347.884,1821.438,351.031,1815.938,355.244 M755.499,375.218
		c-18.004,22.245-23.722,51.795-24.05,79.758c1.74,39.506,51.608,103.017,77.624,132.675c12.258,12.942,20.521,29.194,34.886,40.221
		c-6.457-7.333-13.079-14.501-19.235-22.081c48.136-70.652,98.285-186.609,29.605-238.098
		c-13.489-10.479-30.344-14.419-46.706-17.84C787.456,349.116,767.373,358.829,755.499,375.218 M1101.317,565.379
		c29.984,33.535,91.155,94.688,133.003,130.349c42.499-40.701,84.902-78.472,84.902-78.472
		c-53.847-39.044-98.856-90.073-130.869-148.353C1161.704,503.105,1132.263,535.035,1101.317,565.379 M1429.543,523.708
		c-18.852,18.934-38.169,37.321-56.665,56.556c30.563,25.815,101.112,81.186,110.075,87.884
		c27.854-27.963,56.036-55.598,83.534-83.917c-34.365-33.901-67.199-69.799-93.904-110.129
		C1458.683,491.038,1444.728,507.948,1429.543,523.708 M1575.57,593.014c-27.142,28.018-53.792,56.474-82.084,83.342
		c78.671,64.856,87.62,79.321,137.983,145.917c32.423-30.781,63.615-63.068,99.321-90.155
		C1678.202,686.699,1625.504,641.361,1575.57,593.014 M931.459,717.863c51.275,48.813,104.411,95.737,160.036,139.597
		c4.531-5.907,95.618-111.061,96.476-112.072c-43.012-46.952-83.014-96.503-122.743-146.219
		C1021.505,639.719,975.018,677.15,931.459,717.863 M2118.746,628.337c-18.907,4.323-35.269,15.24-52.807,22.983
		c-15.268,6.485-27.908,17.402-41.616,26.458c46.049,31.164,97.078,53.902,144.522,82.795
		c36.071,20.868,92.297,60.25,149.502,36.226c25.539-6.27,81.954-57.373,93.794-69.525
		c-67.017-69.954-147.457-114.608-244.144-109.035C2150.922,617.502,2135.053,624.534,2118.746,628.337 M345.819,646.724
		c-24.871,18.825-44.407,43.368-63.779,67.528c110.451,150.429,172.908,119.294,282.56,82.467
		c35.597-11.546,69.552-27.498,102.276-45.502C575.175,679.54,447.357,574.596,345.819,646.724 M1246.825,706.672
		c35.104,31.958,72.562,61.453,105.997,95.135c11.611-12.998,80.321-82.697,82.193-84.519
		c-34.284-32.56-70.346-63.122-107.365-92.508C1300.097,651.457,1274.186,679.776,1246.825,706.672 M1797.962,707.137
		c26.102,23.011,48.703,49.579,72.754,74.669c24.598-26.404,53.163-48.539,80.415-72.07c-25.528-22.71-51.549-44.818-75.791-68.896
		C1849.867,663.305,1823.49,684.729,1797.962,707.137 M2471.733,700.461c22.409,21.123,44.736,45.091,75.599,53.136
		c19.18,4.898,42.821,13.215,59.866-1.368c9.916-23.433-8.717-67.669-25.938-81.673
		C2558.483,648.898,2513.258,647.118,2471.733,700.461 M714.128,742.379c27.854,27.58,56.911,54.093,81.099,85.121
		c30.864-28.182,61.809-56.282,93.056-84.054c-26.677-25.309-53.327-50.755-77.76-78.253
		C779.987,692.855,748.221,719.204,714.128,742.379 M94.916,702.431c-15.705,33.406,45.618,78.789,78.089,63.15
		c16.526-8.017,32.04-18.113,46.842-28.976c-5.828-6.922-11.711-14.009-19.481-18.825
		C157.08,689.234,132.582,666.663,94.916,702.431 M1364.013,812.287c48.648,49.223,95.792,101.237,128.379,162.827
		c28.209-34.01,56.747-67.856,87.693-99.403c-63.989-81.952-86.47-100.521-134.535-149.474
		C1417.969,754.555,1390.471,782.928,1364.013,812.287 M1101.782,867.119c40.905,35.542,73.958,79.019,104.684,123.399
		c36.887-59.786,12.996-29.986,88.267-123.509c-31.657-37.129-65.147-72.617-96.667-109.828
		C1165.698,793.599,1132.728,829.47,1101.782,867.119 M1828.552,903.4c-58.042,127.615-6.353,188.869,58.717,174.346
		c12.285-2.298,21.807-10.999,31.274-18.578c21.643-17.561,42.291-64.419-3.393-143.646c-21.019-38.136-53.068-60.962-53.327-71.385
		C1850.66,863.835,1838.676,883.125,1828.552,903.4 M759.767,952.568c-31.7,113.385,37.349,181.534,90.648,152.32
		c80.857-60.941-39.643-196.729-58.964-227.81C777.114,900.417,765.978,925.863,759.767,952.568 M1216.645,1005.512
		c60.058,113.306,61.595,141.366,33.271,192.404c-13.38,25.391-35.159,44.9-58.17,61.399c4.378,9.741,8.017,20.001,14.72,28.483
		c16.499,22.436,36.828,43.723,63.588,53.464c63.148,27.257,109.381-2.565,125.862-9.248
		c39.729-18.743,78.363-44.872,101.045-83.507c-51.844-23.547-72.656-80.034-75.927-136.888
		c1.204-22.135,10.069-43.231,20.575-62.466c-43.313-58.307-89.416-114.507-136.095-170.105
		C1273.228,919.242,1242.119,960.585,1216.645,1005.512 M1507.604,1007.838c34.054,85.565,31.371,181.046,24.297,228.877
		c37.527,13.255,66.046,12.074,97.516-17.812c34.438-47.881,32.539-81.366,38.306-121.347
		c6.805-60.678-32.438-141.039-66.46-191.064c-2.299-2.463-2.299-5.636-1.314-8.646
		C1567.115,932.704,1535.814,969.121,1507.604,1007.838 M1018.769,994.622c-47.795,118.696-3.865,279.921,119.897,250.766
		c-15.18-47.058-21.117-103.244,44.325-214.649c-33.846-45.119-72.617-86.27-113.057-125.479
		C1048.291,932.102,1029.795,961.761,1018.769,994.622 M1195.358,1048.332c-27.443,54.558-28.072,118.502-14.419,177
		c41.085-26.945,55.345-62.993,43.997-111.497C1220.038,1090.058,1205.947,1069.783,1195.358,1048.332 M1507.358,1222.87
		c14.674-55.566-18.818-102.991-44.681-144.002C1420.899,1168.095,1463.286,1186.8,1507.358,1222.87z"/>
	<path d="M2259.847,696.795c14.228,9.686,30.809,16.417,48.32,15.651c-15.459,12.887-29.167,30.453-50.317,33.654
		c-34.458,9.762-41.952-34.82-66.761-56.911c-13.79-6.95-29.441-9.549-43.039-17.073
		C2234.312,636.548,2233.303,677.555,2259.847,696.795z"/>
	<path d="M1305.46,696.357c5.636-7.305,11.3-14.583,16.964-21.889c14.994,14.556,29.933,29.167,44.927,43.723
		c-8.92,7.688-17.812,15.377-26.732,23.065C1328.881,726.29,1317.17,711.324,1305.46,696.357z"/>
	<path d="M363.357,701.227c12.997-4.761,25.227-12.86,39.482-13.188c73.549-8.632,42.334,50.494,120.608,53.464
		c-15.569,13.352-30.562,30.234-51.822,33.764c-36.613,10.38-41.482-44.741-70.838-60.988
		C388.283,709.983,375.67,706.043,363.357,701.227z"/>
</g>
</svg>
