<?xml version="1.0" encoding="UTF-8" standalone="no"?>
<!-- Created with Inkscape (http://www.inkscape.org/) -->

<svg
   xmlns:dc="http://purl.org/dc/elements/1.1/"
   xmlns:cc="http://creativecommons.org/ns#"
   xmlns:rdf="http://www.w3.org/1999/02/22-rdf-syntax-ns#"
   xmlns:svg="http://www.w3.org/2000/svg"
   xmlns="http://www.w3.org/2000/svg"
   xmlns:sodipodi="http://sodipodi.sourceforge.net/DTD/sodipodi-0.dtd"
   xmlns:inkscape="http://www.inkscape.org/namespaces/inkscape"
   width="210mm"
   height="297mm"
   viewBox="0 0 210 297"
   version="1.1"
   id="svg8"
   inkscape:version="0.92.1 r15371"
   sodipodi:docname="logo_sketch.svg">
  <defs
     id="defs2">
    <inkscape:path-effect
       effect="powerstroke"
       id="path-effect4637"
       is_visible="true"
       offset_points="0,-0.17167989 | 0.99746726,0.24403595 | 1.7362543,0.015867583"
       sort_points="true"
       interpolator_type="CubicBezierFit"
       interpolator_beta="0.2"
       start_linecap_type="butt"
       linejoin_type="extrp_arc"
       miter_limit="4"
       end_linecap_type="butt" />
    <inkscape:path-effect
       effect="powerstroke"
       id="path-effect4635"
       is_visible="true"
       offset_points="0.99779665,-0.39340472 | 0.1389513,-0.12408497 | 0.36388169,-0.18236685"
       sort_points="true"
       interpolator_type="CubicBezierFit"
       interpolator_beta="0.2"
       start_linecap_type="butt"
       linejoin_type="extrp_arc"
       miter_limit="4"
       end_linecap_type="butt" />
    <inkscape:path-effect
       effect="powerstroke"
       id="path-effect4633"
       is_visible="true"
       offset_points="0,-0.04161174 | 0.8498345,-0.12825689 | 0.99208853,-0.12361276"
       sort_points="true"
       interpolator_type="CubicBezierFit"
       interpolator_beta="0.2"
       start_linecap_type="butt"
       linejoin_type="extrp_arc"
       miter_limit="4"
       end_linecap_type="peak" />
    <inkscape:path-effect
       effect="powerstroke"
       id="path-effect4631"
       is_visible="true"
       offset_points="0.17118763,0.088418607 | 2.0086015,0.39775736 | 2.6439005,0.17917151"
       sort_points="true"
       interpolator_type="CubicBezierFit"
       interpolator_beta="0.2"
       start_linecap_type="butt"
       linejoin_type="extrp_arc"
       miter_limit="4"
       end_linecap_type="butt" />
    <inkscape:path-effect
       effect="powerstroke"
       id="path-effect4629"
       is_visible="true"
       offset_points="1,0.026161938 | 0.26382867,0.23578824 | 0.80150009,0.18086473"
       sort_points="true"
       interpolator_type="CubicBezierFit"
       interpolator_beta="0.2"
       start_linecap_type="butt"
       linejoin_type="extrp_arc"
       miter_limit="4"
       end_linecap_type="butt" />
    <inkscape:path-effect
       effect="powerstroke"
       id="path-effect4635-7"
       is_visible="true"
       offset_points="0.99779665,-0.39340472 | 0.1389513,-0.12408497 | 0.36388169,-0.18236685"
       sort_points="true"
       interpolator_type="CubicBezierFit"
       interpolator_beta="0.2"
       start_linecap_type="butt"
       linejoin_type="extrp_arc"
       miter_limit="4"
       end_linecap_type="butt" />
    <inkscape:path-effect
       effect="powerstroke"
       id="path-effect4633-7"
       is_visible="true"
       offset_points="0,-0.04161174 | 0.8498345,-0.12825689 | 0.99208853,-0.12361276"
       sort_points="true"
       interpolator_type="CubicBezierFit"
       interpolator_beta="0.2"
       start_linecap_type="butt"
       linejoin_type="extrp_arc"
       miter_limit="4"
       end_linecap_type="peak" />
    <inkscape:path-effect
       effect="powerstroke"
       id="path-effect4629-1"
       is_visible="true"
       offset_points="1,0.026161938 | 0.26382867,0.23578824 | 0.80150009,0.18086473"
       sort_points="true"
       interpolator_type="CubicBezierFit"
       interpolator_beta="0.2"
       start_linecap_type="butt"
       linejoin_type="extrp_arc"
       miter_limit="4"
       end_linecap_type="butt" />
    <inkscape:path-effect
       effect="powerstroke"
       id="path-effect4637-5"
       is_visible="true"
       offset_points="0,-0.17167989 | 0.99746726,0.24403595 | 1.7362543,0.015867583"
       sort_points="true"
       interpolator_type="CubicBezierFit"
       interpolator_beta="0.2"
       start_linecap_type="butt"
       linejoin_type="extrp_arc"
       miter_limit="4"
       end_linecap_type="butt" />
    <inkscape:path-effect
       effect="powerstroke"
       id="path-effect4631-8"
       is_visible="true"
       offset_points="0.17118763,0.088418608 | 2.0086015,0.39775735 | 2.6439005,0.17917151"
       sort_points="true"
       interpolator_type="CubicBezierFit"
       interpolator_beta="0.2"
       start_linecap_type="butt"
       linejoin_type="extrp_arc"
       miter_limit="4"
       end_linecap_type="butt" />
    <inkscape:path-effect
       effect="powerstroke"
       id="path-effect4635-7-3"
       is_visible="true"
       offset_points="0.99779665,-0.39597842 | 0.1389513,-0.12489675 | 0.36388169,-0.18355992"
       sort_points="true"
       interpolator_type="CubicBezierFit"
       interpolator_beta="0.2"
       start_linecap_type="butt"
       linejoin_type="extrp_arc"
       miter_limit="4"
       end_linecap_type="butt" />
    <inkscape:path-effect
       effect="powerstroke"
       id="path-effect4633-7-7"
       is_visible="true"
       offset_points="0,-0.041883969 | 0.8498345,-0.12909596 | 0.99208853,-0.12442145"
       sort_points="true"
       interpolator_type="CubicBezierFit"
       interpolator_beta="0.2"
       start_linecap_type="butt"
       linejoin_type="extrp_arc"
       miter_limit="4"
       end_linecap_type="peak" />
    <inkscape:path-effect
       effect="powerstroke"
       id="path-effect4629-1-2"
       is_visible="true"
       offset_points="1,0.026333092 | 0.26382867,0.23733079 | 0.80150009,0.18204797"
       sort_points="true"
       interpolator_type="CubicBezierFit"
       interpolator_beta="0.2"
       start_linecap_type="butt"
       linejoin_type="extrp_arc"
       miter_limit="4"
       end_linecap_type="butt" />
    <inkscape:path-effect
       effect="powerstroke"
       id="path-effect4631-8-5"
       is_visible="true"
       offset_points="0.039795847,-0.25788817 | 0.4002304,-0.057034628 | 1.8051609,0.39775731 | 2.5415625,0.026507375 | 2.9460329,0.28005623"
       sort_points="true"
       interpolator_type="CubicBezierFit"
       interpolator_beta="0.2"
       start_linecap_type="butt"
       linejoin_type="extrp_arc"
       miter_limit="4"
       end_linecap_type="butt" />
    <inkscape:path-effect
       effect="powerstroke"
       id="path-effect4637-5-2"
       is_visible="true"
       offset_points="0.21784029,-0.0020003016 | 0.99746726,0.24403595 | 1.782551,0.010762303"
       sort_points="true"
       interpolator_type="CubicBezierFit"
       interpolator_beta="0.2"
       start_linecap_type="butt"
       linejoin_type="extrp_arc"
       miter_limit="4"
       end_linecap_type="butt" />
    <inkscape:path-effect
       effect="powerstroke"
       id="path-effect4633-7-7-7"
       is_visible="true"
       offset_points="0,-0.04188397 | 0.80829731,-0.19939276 | 0.99269958,-0.21620919"
       sort_points="true"
       interpolator_type="CubicBezierFit"
       interpolator_beta="0.2"
       start_linecap_type="butt"
       linejoin_type="extrp_arc"
       miter_limit="4"
       end_linecap_type="peak" />
    <inkscape:path-effect
       effect="powerstroke"
       id="path-effect4635-7-3-6"
       is_visible="true"
       offset_points="0.99779665,-0.39597843 | 0.1389513,-0.12489675 | 0.36388169,-0.18355992"
       sort_points="true"
       interpolator_type="CubicBezierFit"
       interpolator_beta="0.2"
       start_linecap_type="butt"
       linejoin_type="extrp_arc"
       miter_limit="4"
       end_linecap_type="butt" />
    <inkscape:path-effect
       effect="powerstroke"
       id="path-effect4629-1-2-2"
       is_visible="true"
       offset_points="1,0.026333092 | 0.26382867,0.23733079 | 0.80150009,0.18204797"
       sort_points="true"
       interpolator_type="CubicBezierFit"
       interpolator_beta="0.2"
       start_linecap_type="butt"
       linejoin_type="extrp_arc"
       miter_limit="4"
       end_linecap_type="butt" />
    <inkscape:path-effect
       effect="powerstroke"
       id="path-effect4637-5-2-0"
       is_visible="true"
       offset_points="0.21784029,-0.0020003016 | 0.99746726,0.24403595 | 1.782551,0.010762303"
       sort_points="true"
       interpolator_type="CubicBezierFit"
       interpolator_beta="0.2"
       start_linecap_type="butt"
       linejoin_type="extrp_arc"
       miter_limit="4"
       end_linecap_type="butt" />
    <inkscape:path-effect
       effect="powerstroke"
       id="path-effect4631-8-5-3"
       is_visible="true"
       offset_points="0.039795847,-0.25788817 | 0.4002304,-0.057034628 | 1.8051609,0.3977573 | 2.5415625,0.026507376 | 2.9460329,0.28005624"
       sort_points="true"
       interpolator_type="CubicBezierFit"
       interpolator_beta="0.2"
       start_linecap_type="butt"
       linejoin_type="extrp_arc"
       miter_limit="4"
       end_linecap_type="butt" />
  </defs>
  <sodipodi:namedview
     id="base"
     pagecolor="#ffffff"
     bordercolor="#666666"
     borderopacity="1.0"
     inkscape:pageopacity="0.0"
     inkscape:pageshadow="2"
     inkscape:zoom="3.21625"
     inkscape:cx="235.85966"
     inkscape:cy="525.34248"
     inkscape:document-units="mm"
     inkscape:current-layer="layer1"
     showgrid="false"
     inkscape:lockguides="false"
     inkscape:snap-global="false"
     inkscape:window-width="2560"
     inkscape:window-height="1330"
     inkscape:window-x="-12"
     inkscape:window-y="-12"
     inkscape:window-maximized="1" />
  <metadata
     id="metadata5">
    <rdf:RDF>
      <cc:Work
         rdf:about="">
        <dc:format>image/svg+xml</dc:format>
        <dc:type
           rdf:resource="http://purl.org/dc/dcmitype/StillImage" />
        <dc:title></dc:title>
      </cc:Work>
    </rdf:RDF>
  </metadata>
  <g
     inkscape:label="Layer 1"
     inkscape:groupmode="layer"
     id="layer1">
    <rect
       style="opacity:1;fill:#cccccc;fill-opacity:1;stroke:#ffffff;stroke-width:0.376932;stroke-linecap:butt;stroke-linejoin:round;stroke-miterlimit:4;stroke-dasharray:none;stroke-opacity:1"
       id="rect4742"
       width="103.45434"
       height="85.072678"
       x="2.3125889"
       y="99.033913" />
    <path
       style="fill:none;stroke:#00ff00;stroke-width:0.26458332px;stroke-linecap:butt;stroke-linejoin:miter;stroke-opacity:1"
       d="M 47.722748,134.99708 H 78.389412"
       id="path4539-9"
       inkscape:connector-curvature="0" />
    <path
       style="fill:none;stroke:#00ff00;stroke-width:0.26458332px;stroke-linecap:butt;stroke-linejoin:miter;stroke-opacity:1"
       d="M 47.402814,116.93534 H 78.069478"
       id="path4539-2"
       inkscape:connector-curvature="0" />
    <path
       style="fill:none;stroke:#00ff00;stroke-width:0.26458332px;stroke-linecap:butt;stroke-linejoin:miter;stroke-opacity:1"
       d="m 64.568495,108.69873 v 30.66666"
       id="path4539-98"
       inkscape:connector-curvature="0" />
    <path
       style="fill:none;stroke:#00ff00;stroke-width:0.26458332px;stroke-linecap:butt;stroke-linejoin:miter;stroke-opacity:1"
       d="m 52.876362,109.25133 v 30.66666"
       id="path4539-91"
       inkscape:connector-curvature="0" />
    <path
       style="fill:none;stroke:#00ff00;stroke-width:0.26458332px;stroke-linecap:butt;stroke-linejoin:miter;stroke-opacity:1"
       d="m 75.67893,110.82192 v 30.66666"
       id="path4539-6"
       inkscape:connector-curvature="0" />
    <path
       style="fill:none;stroke:#00ff00;stroke-width:0.26458332px;stroke-linecap:butt;stroke-linejoin:miter;stroke-opacity:1"
       d="m 65.237448,111.86898 v 30.66666"
       id="path4539-4"
       inkscape:connector-curvature="0" />
    <rect
       style="opacity:0.351;fill:#ff00ff;fill-opacity:1;stroke:#ffffff;stroke-width:0;stroke-linecap:butt;stroke-linejoin:round;stroke-miterlimit:4;stroke-dasharray:none;stroke-opacity:1"
       id="rect4744"
       width="11.401283"
       height="35.275265"
       x="59.486706"
       y="107.45749" />
    <path
       style="fill:none;stroke:#000000;stroke-width:0.26458332px;stroke-linecap:butt;stroke-linejoin:miter;stroke-opacity:1"
       d="M 102.52604,24.668154 C 90.903273,20.13244 112.25893,45.078869 82.965773,26.652529"
       id="path4491"
       inkscape:connector-curvature="0" />
    <path
       style="fill:none;stroke:#000000;stroke-width:0.26458332px;stroke-linecap:butt;stroke-linejoin:miter;stroke-opacity:1"
       d="m 102.52604,24.668154 c 0,0 -4.441219,-0.94494 -4.063243,2.83482 0.377976,3.779764 -0.188989,6.709079 -7.276041,3.779764"
       id="path4493"
       inkscape:connector-curvature="0" />
    <path
       style="fill:none;stroke:#000000;stroke-width:0.26458332px;stroke-linecap:butt;stroke-linejoin:miter;stroke-opacity:1"
       d="m 105.92783,25.802082 c 0,0 2.26785,1.984375 0.94494,5.858631"
       id="path4495"
       inkscape:connector-curvature="0" />
    <path
       style="fill:none;stroke:#000000;stroke-width:0.26458332px;stroke-linecap:butt;stroke-linejoin:miter;stroke-opacity:1"
       d="m 111.21949,29.392856 c 0,0 -10.96131,3.401785 -11.339283,6.425596"
       id="path4497"
       inkscape:connector-curvature="0" />
    <path
       style="fill:none;stroke:#000000;stroke-width:0.26458332px;stroke-linecap:butt;stroke-linejoin:miter;stroke-opacity:1"
       d="m 107.62872,26.747023 c 0,0 1.98438,2.645833 -0.75595,4.91369"
       id="path4501"
       inkscape:connector-curvature="0" />
    <path
       style="fill:none;stroke:#000000;stroke-width:0.26458332px;stroke-linecap:butt;stroke-linejoin:miter;stroke-opacity:1"
       d="m 96.383926,48.291665 c 0,0 -6.709076,-11.433778 -15.591517,-0.188987 -8.882441,11.244792 21.072171,4.063243 20.505211,19.560267 -0.56697,15.497024 -25.135419,11.811757 -27.781253,2.645834"
       id="path4503"
       inkscape:connector-curvature="0" />
    <path
       style="fill:none;stroke:#000000;stroke-width:0.26458332px;stroke-linecap:butt;stroke-linejoin:miter;stroke-opacity:1"
       d="m 153.55282,35.53497 c 0,0 -7.46502,-9.354911 -12.94568,-0.0945 -5.48065,9.260417 15.49702,3.96875 16.63095,11.717263 1.13393,7.748511 -14.07961,9.449406 -19.18229,3.590774"
       id="path4505"
       inkscape:connector-curvature="0" />
    <path
       style="fill:none;stroke:#000000;stroke-width:0.26458332px;stroke-linecap:butt;stroke-linejoin:miter;stroke-opacity:1"
       d="m 141.2686,94.310268 c 0,0 -5.76414,-4.252233 -8.97693,-0.283483 -3.2128,3.96875 6.99255,5.291667 9.63839,7.087055 2.64583,1.79539 2.74033,6.61458 -6.80357,4.63021"
       id="path4507"
       inkscape:connector-curvature="0" />
    <path
       style="fill:none;stroke:#000000;stroke-width:0.26458332px;stroke-linecap:butt;stroke-linejoin:miter;stroke-opacity:1"
       d="m 105.45536,95.633184 c 0,0 -10.961313,-3.779763 -15.119052,4.535716 -4.157737,8.31547 18.048362,1.98437 18.993302,7.46503 0.94494,5.48065 -7.55952,13.22916 -16.536455,5.76413"
       id="path4509"
       inkscape:connector-curvature="0" />
    <path
       style="fill:none;stroke:#000000;stroke-width:0.26458332px;stroke-linecap:butt;stroke-linejoin:miter;stroke-opacity:1"
       d="m 72.016692,89.563381 c -0.962347,-1.603912 0.137748,0.413242 -0.283482,-0.850445 -0.02817,-0.08452 -0.155901,-0.106272 -0.188987,-0.188989 -0.03509,-0.08774 0.02291,-0.19181 0,-0.283482 -0.04114,-0.164558 -0.14239,-0.309375 -0.188989,-0.47247 -0.0173,-0.06057 0.02339,-0.130497 0,-0.188989 -0.17164,-0.429101 -0.161057,-0.147092 -0.377976,-0.472469 -0.07814,-0.117205 -0.144444,-0.244343 -0.188989,-0.377976 -0.09559,-0.286758 0.179724,-0.13217 -0.188987,-0.377978 -1.007938,-0.503968 0.188987,0.188989 -0.566965,-0.566963 -0.135937,-0.135937 -0.721328,-0.291898 -0.850447,-0.377975 -0.0586,-0.03907 -0.03949,-0.144992 -0.09449,-0.18899 -0.109996,-0.088 -0.260771,-0.110852 -0.377976,-0.188989 -0.07413,-0.04942 -0.104471,-0.160814 -0.188989,-0.188986 -0.119526,-0.03984 -0.255744,0.03056 -0.377976,0 -0.136658,-0.03417 -0.24434,-0.144444 -0.377976,-0.18899 -0.05976,-0.01992 -0.125992,0 -0.188987,0 -0.125992,0 -0.251983,0 -0.377978,0 -0.157488,0 -0.314979,0 -0.472469,0 -0.063,0 -0.132644,-0.02817 -0.188989,0 -0.02817,0.01408 0,0.063 0,0.0945 -0.125992,0 -0.258448,-0.03984 -0.377976,0 -0.111268,0.03709 -0.341011,0.410861 -0.377976,0.472469 -0.03624,0.06039 -0.05223,0.132644 -0.09449,0.18899 -0.05345,0.07127 -0.139571,0.114861 -0.18899,0.188986 -0.776684,1.165027 0.398709,-0.409075 -0.377975,0.755952 -0.04942,0.07413 -0.139571,0.114861 -0.188987,0.188989 -0.07814,0.117205 -0.110852,0.260771 -0.188989,0.377976 -0.04942,0.07413 -0.139571,0.114861 -0.188989,0.188989 -0.07814,0.117205 -0.11085,0.260771 -0.188987,0.377976 -0.04942,0.07413 -0.13957,0.114861 -0.188989,0.188986 -0.01746,0.02622 0,0.063 0,0.0945 0,0.063 0.01529,0.127874 0,0.188987 -0.01709,0.06833 -0.07741,0.120661 -0.09449,0.188989 -0.02141,0.08566 0,0.362699 0,0.472469 0,0.283483 0,0.566965 0,0.850448 0,0.220485 0,0.44097 0,0.661458 0,0.063 -0.04455,0.144444 0,0.188987 0.04454,0.04454 0.144444,-0.04454 0.188989,0 0.08909,0.08909 -0.08909,0.288888 0,0.377978 0.04454,0.04454 0.144441,-0.04454 0.188986,0 0.04455,0.04454 -0.03494,0.13657 0,0.188987 0.03907,0.0586 0.149921,0.03589 0.18899,0.09449 0.03494,0.05242 -0.02817,0.132644 0,0.188989 0.01407,0.02817 0.08041,-0.02817 0.09449,0 0.02817,0.05635 -0.02817,0.132644 0,0.18899 0.03984,0.07968 0.125992,0.125992 0.188989,0.188986 0.063,0.063 0.117716,0.135536 0.188987,0.188989 0.05635,0.04226 0.149921,0.03589 0.188989,0.09449 0.03494,0.05242 -0.04454,0.144444 0,0.188989 0.04454,0.04454 0.136573,-0.03495 0.188986,0 0.0586,0.03907 0.05224,0.132641 0.0945,0.188986 0.05345,0.07127 0.125992,0.125992 0.188987,0.18899 0.125992,0.125992 0.251984,0.251984 0.377976,0.377976 0.063,0.06299 0.114861,0.13957 0.188989,0.188986 0.117205,0.07814 0.251984,0.125992 0.377976,0.188989 0.063,0.0315 0.119515,0.08291 0.188989,0.09449 0.124277,0.02072 0.260996,-0.04679 0.377976,0 0.06539,0.02617 0.03949,0.144991 0.09449,0.188989 0.109995,0.088 0.260771,0.11085 0.377976,0.188986 0.148254,0.09884 0.218607,0.298294 0.377976,0.377979 0.299408,0.149701 0.08794,-0.195548 0.377976,0.09449 0.21423,0.214228 -0.05636,0.208053 0.283482,0.377976 0.260683,0.130342 0.169045,-0.228875 0.377976,0.188989 0.02817,0.05634 -0.01992,0.129223 0,0.188987 0.01408,0.04226 0.063,0.063 0.0945,0.09449 0.06299,0.063 0.125992,0.125995 0.188986,0.188985 0.08383,0.0838 0.294148,0.29415 0.377976,0.37798 0.063,0.063 0.139571,0.11486 0.188989,0.18899 0.07814,0.1172 0.116515,0.25718 0.18899,0.37797 0.02291,0.0382 0.06299,0.063 0.09449,0.0945 0.063,0.063 0.125992,0.12599 0.188987,0.18899 0.063,0.063 0.13957,0.11486 0.188989,0.18898 0.07814,0.11721 0.110852,0.26077 0.188989,0.37798 0.339847,0.50977 0.02941,-0.0651 0.377976,0.28348 0.0498,0.0498 0.05223,0.13265 0.09449,0.18899 0.05345,0.0713 0.149146,0.1093 0.188989,0.18899 0.02817,0.0563 -0.01992,0.12922 0,0.18899 0.04454,0.13363 0.144442,0.24434 0.188987,0.37797 0.01992,0.0598 -0.03494,0.13658 0,0.18899 0.03907,0.0586 0.149921,0.0359 0.188989,0.0945 0.03494,0.0524 0,0.126 0,0.18899 0,0.28348 0,0.56697 0,0.85045 0,0.063 0,0.12599 0,0.18899 0,0.063 0.02817,0.13264 0,0.18898 -0.01408,0.0282 -0.07222,-0.0223 -0.0945,0 -0.02228,0.0223 0.01746,0.0683 0,0.0945 -0.04942,0.0741 -0.149145,0.109303 -0.188986,0.188993 -0.05635,0.11269 0.03056,0.25574 0,0.37797 -0.125992,0.50397 -0.0315,-0.0945 -0.283483,0.28349 -0.03494,0.0524 0.02817,0.13264 0,0.18898 -0.03984,0.0797 -0.149146,0.10931 -0.188989,0.18899 -0.02817,0.0563 0.02817,0.13265 0,0.18899 -0.169923,0.33985 -0.163748,0.0693 -0.377976,0.28348 -0.0498,0.0498 -0.07741,0.12066 -0.09449,0.18899 -0.01527,0.0611 0.04454,0.14444 0,0.18899 -0.04454,0.0445 -0.132644,-0.0282 -0.188989,0 -0.159367,0.0797 -0.218607,0.29829 -0.377976,0.37797 -0.05635,0.0282 -0.129225,-0.0199 -0.188987,0 -0.04226,0.0141 -0.05224,0.0804 -0.0945,0.0945 -0.05976,0.0199 -0.129222,-0.0199 -0.188986,0 -0.133636,0.0445 -0.244343,0.14444 -0.377976,0.18899 -0.05976,0.0199 -0.129225,-0.0199 -0.188989,0 -0.133633,0.0445 -0.24434,0.14444 -0.377976,0.18898 -0.05976,0.0199 -0.125992,0 -0.188989,0 -0.09449,0 -0.188987,0 -0.28348,0 -0.409475,0 -0.818949,0 -1.228424,0 -0.08019,0 -0.514871,0.0174 -0.566965,0 -0.04226,-0.0141 -0.05223,-0.0804 -0.09449,-0.0945 -0.145455,-0.0485 -0.260059,0.0824 -0.377976,-0.0945 -0.03494,-0.0524 0.02817,-0.13265 0,-0.18899 -0.03984,-0.0797 -0.125992,-0.12599 -0.188989,-0.18899 -0.063,-0.063 -0.125992,-0.12599 -0.188987,-0.18899 -0.0315,-0.0315 -0.08041,-0.0522 -0.0945,-0.0945 -0.01992,-0.0598 0,-0.12599 0,-0.18899 -0.06299,-0.063 -0.149145,-0.1093 -0.188986,-0.18899 -0.05635,-0.11269 0.06989,-0.27314 0,-0.37797 -0.03907,-0.0586 -0.149921,-0.0359 -0.188989,-0.0945 -0.03494,-0.0524 0.04454,-0.14444 0,-0.18899 -0.04455,-0.0445 -0.144444,0.0446 -0.188987,0 -0.04454,-0.0445 0,-0.12599 0,-0.18898 0,-0.063 0,-0.126 0,-0.18899"
       id="path4511"
       inkscape:connector-curvature="0" />
    <path
       style="fill:none;stroke:#000000;stroke-width:0.26458332px;stroke-linecap:butt;stroke-linejoin:miter;stroke-opacity:1"
       d="m 51.593749,88.829612 c -1.07497,-1.89872 -2.499624,-3.64768 -4.294836,-4.902713 -0.928091,-0.559088 -2.348336,-0.504581 -2.941102,0.516979 -0.657238,1.051315 -1.304774,2.163086 -1.371996,3.434142 -0.06725,1.151786 -0.553085,2.453285 0.213993,3.483429 0.829183,1.239692 2.420305,1.450416 3.690984,2.015264 0.988753,0.331839 1.709704,1.098987 2.313749,1.913833 0.897338,0.954431 1.740308,1.973428 2.235677,3.200656 0.523756,1.10761 1.588736,2.041078 1.397233,3.382998 -0.08076,2.01563 -1.858876,3.67624 -3.841168,3.80221 -2.565318,0.14486 -5.164712,0.16524 -7.709276,-0.23905 -1.37187,-0.28033 -2.779363,-0.43781 -4.069101,-1.02874 -1.173527,-0.49107 -2.596283,-1.3531 -2.561109,-2.79959 -0.06987,-1.3107 0.142661,-2.602986 0.683964,-3.802458"
       id="path4513"
       inkscape:connector-curvature="0" />
    <path
       style="fill:none;stroke:#000000;stroke-width:0.26458332px;stroke-linecap:butt;stroke-linejoin:miter;stroke-opacity:1"
       d="m 127.56696,75.411456 c 0,0 -10.01637,-5.669642 -13.32366,0.566965 -3.30729,6.236608 15.68601,0.661458 16.06399,8.031993 0.37798,7.370538 -14.93006,4.724704 -16.53646,1.889882"
       id="path4519"
       inkscape:connector-curvature="0" />
    <path
       style="fill:none;stroke:#000000;stroke-width:0.26458332px;stroke-linecap:butt;stroke-linejoin:miter;stroke-opacity:1"
       d="m 167.72693,76.16741 c 0,0 -8.12648,-7.843006 -12.00074,-0.188989 -3.87426,7.654017 10.58333,6.803573 13.13467,14.835566 2.55134,8.031993 -10.96131,8.315475 -14.55208,1.41741"
       id="path4521"
       inkscape:connector-curvature="0" />
    <path
       style="fill:none;stroke:#000000;stroke-width:0.26458332px;stroke-linecap:butt;stroke-linejoin:miter;stroke-opacity:1"
       d="m 173.96354,112.7366 c 0,0 -9.16592,-3.0238 -12.28423,-0.0945 -3.1183,2.92932 13.22917,5.57515 14.55209,11.1503 1.32291,5.57515 -11.1503,6.42559 -14.07962,1.13393"
       id="path4523"
       inkscape:connector-curvature="0" />
    <path
       style="fill:none;stroke:#000000;stroke-width:0.26458332px;stroke-linecap:butt;stroke-linejoin:miter;stroke-opacity:1"
       d="m 147.41071,120.6741 c 0,0 -5.19717,-3.59077 -10.20535,-1.98437 -5.00819,1.6064 18.80431,10.58333 13.13467,14.64658 -5.66964,4.06324 -12.47322,-1.22842 -13.70164,-2.83482"
       id="path4525"
       inkscape:connector-curvature="0" />
    <path
       style="fill:none;stroke:#000000;stroke-width:0.365;stroke-linecap:round;stroke-linejoin:miter;stroke-opacity:1;stroke-miterlimit:4;stroke-dasharray:none"
       d="m 98.840773,125.77678 c 0,0 -0.850448,-4.7247 -6.709077,-1.13393 -5.858631,3.59078 8.315474,5.48066 8.409974,11.81176 0.0887,5.94524 -10.821692,5.30766 -10.821692,-0.42603 0,-0.37213 0.04596,-0.76572 0.143861,-1.18037"
       id="path4531"
       inkscape:connector-curvature="0"
       sodipodi:nodetypes="ccssc" />
    <path
       style="fill:none;stroke:#000000;stroke-width:0.26458332px;stroke-linecap:butt;stroke-linejoin:miter;stroke-opacity:1"
       d="m 95.840588,123.25885 c 0,0 -8.858819,1.4785 -0.4016,6.95915 7.087052,5.48066 2.797358,10.59586 0.246018,10.40687"
       id="path4533"
       inkscape:connector-curvature="0"
       sodipodi:nodetypes="ccc" />
    <path
       style="fill:none;stroke:#00ff00;stroke-width:0.26458332px;stroke-linecap:butt;stroke-linejoin:miter;stroke-opacity:1"
       d="m 95.979114,123.28865 29.136436,-0.0119 v 18.77365"
       id="path4535"
       inkscape:connector-curvature="0"
       sodipodi:nodetypes="ccc" />
    <path
       style="fill:none;stroke:#00ff00;stroke-width:0.26458332px;stroke-linecap:butt;stroke-linejoin:miter;stroke-opacity:1"
       d="M 95.685006,140.62487 H 126.35167"
       id="path4539"
       inkscape:connector-curvature="0" />
    <path
       style="fill:none;stroke:#ff00ff;stroke-width:0.26458332px;stroke-linecap:butt;stroke-linejoin:miter;stroke-opacity:1"
       d="M 89.635518,136.38772 H 100.66038"
       id="path4543"
       inkscape:connector-curvature="0"
       sodipodi:nodetypes="cc" />
    <path
       style="fill:none;stroke:#ff00ff;stroke-width:0.26458332px;stroke-linecap:butt;stroke-linejoin:miter;stroke-opacity:1"
       d="m 100.66038,136.38772 h 11.02486"
       id="path4543-7"
       inkscape:connector-curvature="0"
       sodipodi:nodetypes="cc" />
    <path
       style="fill:none;stroke:#ff00ff;stroke-width:0.26458332px;stroke-linecap:butt;stroke-linejoin:miter;stroke-opacity:1"
       d="m 100.66038,123.68764 h 11.02486"
       id="path4543-7-6"
       inkscape:connector-curvature="0"
       sodipodi:nodetypes="cc" />
    <path
       style="fill:none;stroke:#ff00ff;stroke-width:0.26458332px;stroke-linecap:butt;stroke-linejoin:miter;stroke-opacity:1"
       d="m 100.66039,125.89917 h 11.02486"
       id="path4543-7-62"
       inkscape:connector-curvature="0"
       sodipodi:nodetypes="cc" />
    <path
       style="fill:none;stroke:#ff00ff;stroke-width:0.26458332px;stroke-linecap:butt;stroke-linejoin:miter;stroke-opacity:1"
       d="m 100.66039,128.01585 h 11.02486"
       id="path4543-7-1"
       inkscape:connector-curvature="0"
       sodipodi:nodetypes="cc" />
    <path
       style="fill:none;stroke:#000000;stroke-width:0.365;stroke-linecap:round;stroke-linejoin:miter;stroke-opacity:1;stroke-miterlimit:4;stroke-dasharray:none"
       d="m 100.7779,123.27269 c 0,0 4.66564,0.41341 5.89406,7.52409"
       id="path4587"
       inkscape:connector-curvature="0"
       sodipodi:nodetypes="cc" />
    <path
       style="fill:none;stroke:#000000;stroke-width:0.365;stroke-linecap:round;stroke-linejoin:miter;stroke-opacity:1;stroke-miterlimit:4;stroke-dasharray:none"
       d="m 111.60928,123.9814 c 0,0 -7.0203,5.71602 -7.02799,16.65457"
       id="path4589"
       inkscape:connector-curvature="0"
       sodipodi:nodetypes="cc" />
    <path
       style="fill:none;stroke:#000000;stroke-width:0.26458332px;stroke-linecap:round;stroke-linejoin:miter;stroke-opacity:1"
       d="m 111.59747,123.24907 c 0,0 -2.35053,1.65364 -5.11449,6.75632"
       id="path4591"
       inkscape:connector-curvature="0"
       sodipodi:nodetypes="cc" />
    <path
       inkscape:original-d="m 62.319821,119.76878 c 0,0 -0.850448,-4.7247 -6.709077,-1.13393 -5.858631,3.59078 8.315474,5.48066 8.409974,11.81176 0.0887,5.94524 -10.821692,5.30766 -10.821692,-0.42603 0,-0.37213 0.04596,-0.76572 0.143861,-1.18037"
       inkscape:path-effect="#path-effect4631"
       style="fill:#000000;fill-rule:nonzero;stroke:none;stroke-width:0.465;stroke-linecap:butt;stroke-linejoin:miter;stroke-miterlimit:4;stroke-dasharray:none;stroke-opacity:1"
       d="m 62.406841,119.75312 0,0 c -5.69e-4,-0.003 -0.02644,-0.14591 -0.09879,-0.36233 -0.02912,-0.10106 -0.06815,-0.21838 -0.119284,-0.34548 -0.161231,-0.40076 -0.447252,-0.90974 -0.93453,-1.3087 -0.244527,-0.20021 -0.540029,-0.37291 -0.895212,-0.48936 -0.355323,-0.11651 -0.767141,-0.17565 -1.242231,-0.15192 -0.949492,0.0474 -2.142972,0.42523 -3.639292,1.32213 -0.379296,0.22743 -0.686788,0.45327 -0.925811,0.68053 -0.238975,0.22722 -0.415261,0.46132 -0.523618,0.70619 -0.109622,0.24773 -0.146652,0.50002 -0.114479,0.75311 0.03185,0.25054 0.129703,0.48854 0.270834,0.71334 0.278528,0.44366 0.744386,0.86483 1.295443,1.27451 0.554862,0.41252 1.221732,0.8317 1.923366,1.26477 1.41636,0.87423 2.973112,1.80583 4.186146,2.90732 0.603488,0.548 1.108869,1.12699 1.464777,1.74716 0.354214,0.61722 0.56014,1.27444 0.56917,1.98815 5.88e-4,0.047 4.32e-4,0.0934 -4.52e-4,0.13928 -0.01191,0.61847 -0.149508,1.14719 -0.379381,1.59745 -0.247531,0.48485 -0.610387,0.89456 -1.065523,1.22673 -0.915763,0.66835 -2.193508,1.01087 -3.524178,0.97935 -0.760946,-0.018 -1.527114,-0.1587 -2.229384,-0.42255 -0.517152,-0.1943 -0.998805,-0.4504 -1.41986,-0.76567 -0.495931,-0.37134 -0.907091,-0.8242 -1.194461,-1.35478 -0.287097,-0.53007 -0.452433,-1.14093 -0.453148,-1.83177 -0.0057,-0.36026 0.06564,-0.73818 0.16032,-1.1392 l -0.348754,-0.0823 c -0.101083,0.42812 -0.121696,0.8377 -0.127402,1.22154 -7.16e-4,0.7426 0.174905,1.40589 0.484118,1.98493 0.308945,0.57854 0.749478,1.06973 1.274998,1.47156 0.445964,0.341 0.953652,0.61807 1.495807,0.83028 0.734758,0.28759 1.534258,0.46525 2.336442,0.52369 1.386113,0.10097 2.819206,-0.15267 3.92405,-0.85805 0.5552,-0.35447 1.030023,-0.82541 1.362358,-1.42144 0.309775,-0.55557 0.488292,-1.20697 0.499399,-1.94624 8.18e-4,-0.0544 7.62e-4,-0.10931 -1.75e-4,-0.16463 -0.01461,-0.86909 -0.27228,-1.65585 -0.688417,-2.3678 -0.414457,-0.70908 -0.986158,-1.34441 -1.633226,-1.92003 -1.288173,-1.14592 -2.926506,-2.09792 -4.333086,-2.93654 -0.710162,-0.42341 -1.361218,-0.81752 -1.898843,-1.19983 -0.541546,-0.3851 -0.940882,-0.73968 -1.169156,-1.07714 -0.112033,-0.16562 -0.177612,-0.31965 -0.202511,-0.46511 -0.02449,-0.14307 -0.01205,-0.29109 0.05139,-0.4511 0.06458,-0.16287 0.184405,-0.34364 0.381412,-0.54175 0.1969,-0.198 0.465333,-0.40773 0.818313,-0.62914 1.432927,-0.89846 2.542887,-1.27667 3.400514,-1.35323 0.428481,-0.0383 0.796295,-0.001 1.11274,0.0851 0.316624,0.0866 0.585101,0.22389 0.813061,0.38988 0.457894,0.3334 0.750175,0.78107 0.931729,1.15404 0.05686,0.11681 0.102327,0.22518 0.138311,0.31887 0.06901,0.20642 0.09306,0.34089 0.09246,0.33758 z"
       id="path4531-7"
       inkscape:connector-curvature="0"
       sodipodi:nodetypes="ccssc" />
    <path
       inkscape:original-d="m 59.319636,117.25085 c 0,0 -8.858819,1.4785 -0.4016,6.95915 7.087052,5.48066 2.797358,10.59586 0.246018,10.40687"
       inkscape:path-effect="#path-effect4637"
       style="fill:#000000;fill-rule:nonzero;stroke:none;stroke-width:0.26458332px;stroke-linecap:butt;stroke-linejoin:miter;stroke-opacity:1"
       d="m 59.347898,117.42019 c -5.05e-4,-0.047 -0.658162,0.0484 -1.260506,0.20898 -0.382749,0.10201 -0.766406,0.23124 -1.120787,0.38654 -0.415951,0.18228 -0.770068,0.39081 -1.052057,0.62344 -0.346002,0.28543 -0.571583,0.59716 -0.689983,0.92929 -0.157228,0.44105 -0.115234,0.88871 0.03012,1.30447 0.216255,0.61857 0.667795,1.18705 1.091342,1.62627 0.658564,0.68294 1.498601,1.31489 2.432703,1.91073 0.870427,0.66178 2.536729,2.01955 3.387919,3.82646 0.440576,0.93525 0.701783,2.07645 0.416638,3.28439 -0.185686,0.7866 -0.608002,1.58635 -1.288887,2.21747 -0.03431,0.0318 -0.06904,0.0628 -0.104147,0.093 -0.319616,0.27462 -0.668881,0.47959 -1.016697,0.60936 -0.347824,0.12978 -0.692473,0.18389 -1.008325,0.1605 l -0.0023,0.0316 c 0.321977,0.0239 0.669466,-0.0405 1.01692,-0.17574 0.347432,-0.13519 0.696641,-0.34174 1.027104,-0.60565 0.03639,-0.0291 0.07258,-0.0588 0.108539,-0.0893 0.71349,-0.60471 1.183431,-1.39951 1.412157,-2.20363 0.35249,-1.23922 0.136636,-2.44315 -0.284029,-3.44511 -0.813977,-1.93877 -2.498408,-3.40475 -3.376597,-4.09584 0,0 -0.0065,-0.005 -0.0065,-0.005 0,0 -0.01005,-0.007 -0.01005,-0.007 -0.890089,-0.58659 -1.747914,-1.22449 -2.382172,-1.83 -0.422438,-0.4033 -0.86088,-0.89965 -1.097155,-1.42762 -0.15608,-0.34877 -0.231181,-0.72596 -0.138571,-1.11732 0.07093,-0.29973 0.240809,-0.61 0.547668,-0.91953 0.2505,-0.25268 0.578291,-0.49063 0.978458,-0.71157 0.341301,-0.18844 0.712014,-0.35175 1.08912,-0.49381 0.61692,-0.2324 1.244006,-0.3852 1.243586,-0.42432 z"
       id="path4533-6"
       inkscape:connector-curvature="0"
       sodipodi:nodetypes="ccc" />
    <path
       inkscape:original-d="m 65.413805,117.74439 c 0,0 3.580468,-0.1836 4.996366,7.49833"
       inkscape:path-effect="#path-effect4629"
       style="fill:#000000;fill-rule:nonzero;stroke:none;stroke-width:0.4696711;stroke-linecap:butt;stroke-linejoin:miter;stroke-miterlimit:4;stroke-dasharray:none;stroke-opacity:1"
       d="m 65.42588,117.97987 c -0.01958,10e-4 0.158656,-0.016 0.504338,0.0826 0.329158,0.0938 0.791087,0.29408 1.303279,0.72334 0.562756,0.47162 1.118217,1.16221 1.625453,2.1316 0.115184,0.22014 0.225227,0.44954 0.330377,0.68757 0.418236,0.94679 0.863549,2.12813 1.195115,3.64247 l 0.05146,-0.009 c -0.230115,-1.53234 -0.516334,-2.77998 -0.913084,-3.7731 -0.09936,-0.24871 -0.205136,-0.48962 -0.317452,-0.72172 -0.493892,-1.02063 -1.068255,-1.77601 -1.676809,-2.30331 -0.557069,-0.4827 -1.077912,-0.71801 -1.46802,-0.83086 -0.399909,-0.11568 -0.654158,-0.10032 -0.658805,-0.10008 z"
       id="path4587-2"
       inkscape:connector-curvature="0"
       sodipodi:nodetypes="cc" />
    <path
       inkscape:original-d="m 75.418362,117.30161 c 0,0 -6.080803,5.70066 -6.088493,17.54174"
       inkscape:path-effect="#path-effect4635"
       style="fill:#000000;fill-rule:nonzero;stroke:none;stroke-width:0;stroke-linecap:butt;stroke-linejoin:miter;stroke-miterlimit:4;stroke-dasharray:none;stroke-opacity:1"
       d="m 75.503228,117.39214 c 0.0022,-0.002 -0.118462,0.10077 -0.312868,0.32454 -0.315107,0.36271 -0.841932,1.02087 -1.450331,1.97203 -0.4143,0.64772 -0.803499,1.33305 -1.16257,2.04832 -1.124029,2.23906 -1.727682,4.32065 -2.062954,5.77722 -0.313254,1.36092 -0.453593,2.45705 -0.507696,2.9006 -0.0088,0.0718 -0.282061,2.15803 -0.283535,4.42876 l -0.78681,-5.2e-4 c 0.0017,-2.57765 0.281243,-4.20975 0.332417,-4.53197 0.07006,-0.44118 0.257893,-1.58058 0.618459,-2.95159 0.387203,-1.47231 1.069871,-3.59561 2.2892,-5.83241 0.389884,-0.71523 0.812501,-1.40093 1.260393,-2.04129 0.658442,-0.9414 1.230582,-1.5826 1.570214,-1.93654 0.209764,-0.2186 0.3242,-0.33619 0.326349,-0.33821 z"
       id="path4589-3"
       inkscape:connector-curvature="0"
       sodipodi:nodetypes="cc" />
    <path
       inkscape:original-d="m 74.842645,117.06466 c 0,0 -3.77384,4.05375 -4.567474,7.1774"
       inkscape:path-effect="#path-effect4633"
       style="fill:#000000;fill-rule:nonzero;stroke:none;stroke-width:0.26458332px;stroke-linecap:butt;stroke-linejoin:miter;stroke-opacity:1"
       d="m 74.873102,117.09301 c 0.0131,0.0109 -0.91501,1.03574 -1.940374,2.44558 -0.512939,0.70528 -1.049358,1.50563 -1.5051,2.32327 -0.181923,0.32639 -0.350746,0.6551 -0.499976,0.98122 -0.212578,0.46456 -0.395032,0.91926 -0.513683,1.35665 -0.0066,0.0243 -0.01284,0.0486 -0.01899,0.0728 l -0.150246,0.0894 -0.08937,-0.15025 c 0.0064,-0.0252 0.01309,-0.0505 0.01979,-0.0759 0.120451,-0.45544 0.295535,-0.92957 0.520066,-1.40121 0.157538,-0.33091 0.334675,-0.66285 0.524454,-0.99082 0.475063,-0.82098 1.030928,-1.61974 1.560635,-2.31835 1.059808,-1.39773 2.018842,-2.3999 2.031875,-2.38908 z"
       id="path4591-5"
       inkscape:connector-curvature="0"
       sodipodi:nodetypes="cc" />
    <circle
       style="opacity:1;fill:none;fill-opacity:1;stroke:#000000;stroke-width:1.3;stroke-linecap:butt;stroke-linejoin:round;stroke-miterlimit:4;stroke-dasharray:none;stroke-opacity:1"
       id="path4723"
       cx="64.906723"
       cy="125.11713"
       r="16.946253" />
    <circle
       style="opacity:1;fill:none;fill-opacity:1;stroke:#000000;stroke-width:0.29422945;stroke-linecap:butt;stroke-linejoin:round;stroke-miterlimit:4;stroke-dasharray:none;stroke-opacity:1"
       id="path4723-6"
       cx="64.90625"
       cy="125.11674"
       r="16.052771" />
    <rect
       style="opacity:0.34299999;fill:#ff00ff;fill-opacity:1;stroke:#ffffff;stroke-width:0;stroke-linecap:butt;stroke-linejoin:round;stroke-miterlimit:4;stroke-dasharray:none;stroke-opacity:1"
       id="rect4746"
       width="38.828865"
       height="17.5965"
       x="44.628513"
       y="125.06711" />
    <path
       inkscape:original-d="m 19.871318,118.56706 c 0,0 -0.850448,-4.7247 -6.709077,-1.13393 -5.8586307,3.59078 8.315474,5.48066 8.409974,11.81176 0.0887,5.94524 -10.821692,5.30766 -10.821692,-0.42603 0,-0.37213 0.04596,-0.76572 0.143861,-1.18037"
       inkscape:path-effect="#path-effect4631-8"
       style="fill:#000000;fill-rule:nonzero;stroke:none;stroke-width:0.465;stroke-linecap:butt;stroke-linejoin:miter;stroke-miterlimit:4;stroke-dasharray:none;stroke-opacity:1"
       d="m 19.958338,118.5514 c -5.69e-4,-0.003 -0.02644,-0.14591 -0.09879,-0.36233 -0.02912,-0.10106 -0.06815,-0.21838 -0.119284,-0.34548 -0.161231,-0.40076 -0.447252,-0.90974 -0.93453,-1.3087 -0.244527,-0.20021 -0.540029,-0.37291 -0.895212,-0.48936 -0.355323,-0.11651 -0.767141,-0.17565 -1.242231,-0.15192 -0.949492,0.0474 -2.142972,0.42523 -3.639292,1.32213 -0.379296,0.22743 -0.686788,0.45327 -0.925811,0.68053 -0.238975,0.22722 -0.415261,0.46132 -0.523617,0.70619 -0.109622,0.24773 -0.146653,0.50002 -0.11448,0.75311 0.03185,0.25054 0.129703,0.48854 0.270835,0.71334 0.278527,0.44366 0.744385,0.86483 1.295442,1.27451 0.554862,0.41252 1.221732,0.8317 1.923366,1.26477 1.41636,0.87423 2.973112,1.80583 4.186146,2.90732 0.603488,0.548 1.108869,1.12699 1.464777,1.74716 0.354214,0.61722 0.56014,1.27444 0.56917,1.98815 5.89e-4,0.047 4.32e-4,0.0934 -4.52e-4,0.13928 -0.01191,0.61847 -0.149508,1.14719 -0.379381,1.59745 -0.247531,0.48485 -0.610387,0.89456 -1.065523,1.22673 -0.915763,0.66835 -2.193508,1.01087 -3.524178,0.97935 -0.760946,-0.018 -1.527114,-0.1587 -2.229384,-0.42255 -0.517152,-0.1943 -0.998805,-0.4504 -1.41986,-0.76567 -0.495931,-0.37134 -0.907091,-0.8242 -1.194461,-1.35478 -0.287097,-0.53007 -0.452433,-1.14093 -0.453148,-1.83177 -0.0057,-0.36026 0.06564,-0.73818 0.16032,-1.1392 l -0.348754,-0.0823 c -0.101083,0.42812 -0.121696,0.8377 -0.127402,1.22154 -7.16e-4,0.7426 0.174905,1.40589 0.484118,1.98493 0.308945,0.57854 0.749478,1.06973 1.274998,1.47156 0.445964,0.341 0.953652,0.61807 1.495807,0.83028 0.734758,0.28759 1.534258,0.46525 2.336442,0.52369 1.386113,0.10097 2.819206,-0.15267 3.92405,-0.85805 0.5552,-0.35447 1.030023,-0.82541 1.362358,-1.42144 0.309775,-0.55557 0.488292,-1.20697 0.499399,-1.94624 8.17e-4,-0.0544 7.62e-4,-0.10931 -1.75e-4,-0.16463 -0.01461,-0.86909 -0.27228,-1.65585 -0.688417,-2.3678 -0.414457,-0.70908 -0.986158,-1.34441 -1.633226,-1.92003 -1.288172,-1.14592 -2.926506,-2.09792 -4.333086,-2.93654 -0.710162,-0.42341 -1.361218,-0.81752 -1.898843,-1.19983 -0.541546,-0.3851 -0.940882,-0.73968 -1.169156,-1.07714 -0.112032,-0.16562 -0.177612,-0.31965 -0.202511,-0.46511 -0.02449,-0.14307 -0.01205,-0.29109 0.05139,-0.4511 0.06458,-0.16287 0.184405,-0.34364 0.381412,-0.54175 0.1969,-0.198 0.465333,-0.40773 0.818313,-0.62914 1.432927,-0.89846 2.542887,-1.27667 3.400514,-1.35323 0.428481,-0.0383 0.796295,-0.001 1.11274,0.0851 0.316624,0.0866 0.585101,0.22389 0.813061,0.38988 0.457894,0.3334 0.750175,0.78107 0.931729,1.15404 0.05686,0.11681 0.102327,0.22518 0.138311,0.31887 0.06901,0.20642 0.09306,0.34089 0.09246,0.33758 z"
       id="path4531-7-7"
       inkscape:connector-curvature="0"
       sodipodi:nodetypes="ccssc" />
    <path
       inkscape:original-d="m 16.871133,116.04913 c 0,0 -8.8588186,1.4785 -0.4016,6.95915 7.087052,5.48066 2.797358,10.59586 0.246018,10.40687"
       inkscape:path-effect="#path-effect4637-5"
       style="fill:#000000;fill-rule:nonzero;stroke:none;stroke-width:0.26458332px;stroke-linecap:butt;stroke-linejoin:miter;stroke-opacity:1"
       d="m 16.899395,116.21847 c -5.05e-4,-0.047 -0.658162,0.0484 -1.260506,0.20898 -0.382749,0.10201 -0.766406,0.23124 -1.120787,0.38654 -0.415951,0.18228 -0.770068,0.39081 -1.052057,0.62344 -0.346001,0.28543 -0.571583,0.59716 -0.689983,0.92929 -0.157227,0.44105 -0.115234,0.88871 0.03012,1.30447 0.216255,0.61857 0.667795,1.18705 1.091343,1.62627 0.658563,0.68294 1.4986,1.31489 2.432702,1.91073 0.870427,0.66178 2.536729,2.01955 3.387919,3.82646 0.440576,0.93525 0.701783,2.07645 0.416638,3.28439 -0.185686,0.7866 -0.608002,1.58635 -1.288887,2.21747 -0.03431,0.0318 -0.06904,0.0628 -0.104147,0.093 -0.319616,0.27462 -0.668881,0.47959 -1.016697,0.60936 -0.347824,0.12978 -0.692473,0.18389 -1.008325,0.1605 l -0.0023,0.0316 c 0.321977,0.0239 0.669466,-0.0405 1.01692,-0.17574 0.347432,-0.13519 0.696641,-0.34174 1.027104,-0.60565 0.03639,-0.0291 0.07258,-0.0588 0.108539,-0.0893 0.71349,-0.60471 1.183431,-1.39951 1.412157,-2.20363 0.35249,-1.23922 0.136636,-2.44315 -0.284029,-3.44511 -0.813977,-1.93877 -2.498408,-3.40475 -3.376597,-4.09584 0,0 -0.0065,-0.005 -0.0065,-0.005 0,0 -0.01005,-0.007 -0.01005,-0.007 -0.890089,-0.58659 -1.747914,-1.22449 -2.382172,-1.83 -0.422438,-0.4033 -0.86088,-0.89965 -1.097155,-1.42762 -0.15608,-0.34877 -0.231181,-0.72596 -0.138571,-1.11732 0.07093,-0.29973 0.240809,-0.61 0.547668,-0.91953 0.2505,-0.25268 0.578292,-0.49063 0.978458,-0.71157 0.341301,-0.18844 0.712014,-0.35175 1.08912,-0.49381 0.61692,-0.2324 1.244006,-0.3852 1.243586,-0.42432 z"
       id="path4533-6-5"
       inkscape:connector-curvature="0"
       sodipodi:nodetypes="ccc" />
    <path
       inkscape:original-d="m 22.965302,116.54267 c 0,0 3.580468,-0.1836 4.996366,7.49833"
       inkscape:path-effect="#path-effect4629-1"
       style="fill:#000000;fill-rule:nonzero;stroke:none;stroke-width:0.4696711;stroke-linecap:butt;stroke-linejoin:miter;stroke-miterlimit:4;stroke-dasharray:none;stroke-opacity:1"
       d="m 22.977377,116.77815 c -0.01958,0.001 0.158656,-0.0159 0.504338,0.0826 0.329158,0.0938 0.791087,0.29408 1.303279,0.72334 0.562756,0.47162 1.118217,1.16221 1.625453,2.1316 0.115184,0.22014 0.225227,0.44954 0.330377,0.68757 0.418236,0.94679 0.863549,2.12813 1.195115,3.64247 l 0.05146,-0.009 c -0.230115,-1.53234 -0.516334,-2.77998 -0.913084,-3.7731 -0.09936,-0.24871 -0.205136,-0.48962 -0.317452,-0.72172 -0.493892,-1.02063 -1.068255,-1.77601 -1.676809,-2.30331 -0.557069,-0.4827 -1.077912,-0.71801 -1.46802,-0.83086 -0.399909,-0.11568 -0.654158,-0.10032 -0.658805,-0.10008 z"
       id="path4587-2-7"
       inkscape:connector-curvature="0"
       sodipodi:nodetypes="cc" />
    <path
       inkscape:original-d="m 32.969858,116.09989 c 0,0 -6.080802,5.70066 -6.088492,17.54174"
       inkscape:path-effect="#path-effect4635-7"
       style="fill:#000000;fill-rule:nonzero;stroke:none;stroke-width:0;stroke-linecap:butt;stroke-linejoin:miter;stroke-miterlimit:4;stroke-dasharray:none;stroke-opacity:1"
       d="m 33.054724,116.19042 c 0,0 0,0 0,0 0.0022,-0.002 -0.118462,0.10077 -0.312867,0.32454 -0.315108,0.36271 -0.841933,1.02087 -1.450332,1.97203 -0.414299,0.64772 -0.803499,1.33305 -1.16257,2.04832 -1.124028,2.23906 -1.727682,4.32065 -2.062953,5.77722 -0.313254,1.36092 -0.453593,2.45705 -0.507696,2.9006 -0.0088,0.0718 -0.282061,2.15803 -0.283535,4.42876 l -0.78681,-5.2e-4 c 0.0017,-2.57765 0.281243,-4.20975 0.332417,-4.53197 0.07006,-0.44118 0.257893,-1.58058 0.618458,-2.95159 0.387203,-1.47231 1.069872,-3.59561 2.289201,-5.83241 0.389883,-0.71523 0.8125,-1.40093 1.260393,-2.04129 0.658441,-0.9414 1.230581,-1.5826 1.570213,-1.93654 0.209764,-0.2186 0.3242,-0.33619 0.326349,-0.33821 z"
       id="path4589-3-1"
       inkscape:connector-curvature="0"
       sodipodi:nodetypes="cc" />
    <path
       inkscape:original-d="m 32.394141,115.91436 c 0,0 -3.773839,4.00233 -4.567473,7.12598"
       inkscape:path-effect="#path-effect4633-7"
       style="fill:#000000;fill-rule:nonzero;stroke:none;stroke-width:0.26458332px;stroke-linecap:butt;stroke-linejoin:miter;stroke-opacity:1"
       d="m 32.424416,115.94291 c 0.01304,0.0109 -0.915107,1.02301 -1.940441,2.42001 -0.512929,0.69885 -1.049307,1.49275 -1.505,2.30552 -0.181902,0.32444 -0.350703,0.65145 -0.49991,0.97623 -0.212541,0.46264 -0.394965,0.91614 -0.513601,1.35335 -0.0066,0.0243 -0.01284,0.0486 -0.01899,0.0728 l -0.150246,0.0894 -0.08937,-0.15025 c 0.0064,-0.0252 0.01309,-0.0505 0.0198,-0.0758 0.120464,-0.45539 0.295579,-0.92844 0.520146,-1.39827 0.157561,-0.32963 0.334721,-0.65994 0.524522,-0.986 0.475111,-0.81621 1.031016,-1.60857 1.560734,-2.30074 1.059834,-1.38488 2.018832,-2.37412 2.031806,-2.36324 z"
       id="path4591-5-0"
       inkscape:connector-curvature="0"
       sodipodi:nodetypes="cc" />
    <circle
       style="opacity:1;fill:none;fill-opacity:1;stroke:#000000;stroke-width:1.18239236;stroke-linecap:butt;stroke-linejoin:round;stroke-miterlimit:4;stroke-dasharray:none;stroke-opacity:1"
       id="path4723-2"
       cx="21.825811"
       cy="124.7535"
       r="15.413171" />
    <circle
       style="opacity:1;fill:none;fill-opacity:1;stroke:#000000;stroke-width:0.26761135;stroke-linecap:butt;stroke-linejoin:round;stroke-miterlimit:4;stroke-dasharray:none;stroke-opacity:1"
       id="path4723-6-3"
       cx="21.82538"
       cy="124.75298"
       r="14.600519" />
    <rect
       style="opacity:0.34299999;fill:#ff00ff;fill-opacity:1;stroke:#ffffff;stroke-width:0;stroke-linecap:butt;stroke-linejoin:round;stroke-miterlimit:4;stroke-dasharray:none;stroke-opacity:1"
       id="rect4746-1"
       width="21.712397"
       height="17.989147"
       x="19.995619"
       y="150.81918" />
    <path
       inkscape:original-d="m 28.584661,152.96563 c -1.581042,-3.0373 -6.553317,-2.7184 -7.605468,0.61195 -1.1816,4.63724 9.153695,4.41828 9.248195,10.74938 0.0887,5.94524 -10.007315,5.30766 -9.935385,1.85063"
       inkscape:path-effect="#path-effect4631-8-5"
       style="fill:#000000;fill-rule:nonzero;stroke:none;stroke-width:0.465;stroke-linecap:butt;stroke-linejoin:miter;stroke-miterlimit:4;stroke-dasharray:none;stroke-opacity:1"
       d="m 28.355909,153.0847 c -0.05871,-0.11279 -0.127947,-0.21686 -0.19051,-0.32313 -0.358242,-0.6085 -0.851001,-1.03397 -1.352085,-1.31942 -0.721138,-0.4108 -1.517898,-0.56881 -2.230014,-0.56238 -0.808554,0.007 -1.607259,0.22446 -2.281426,0.64648 -0.633873,0.3968 -1.243766,1.03103 -1.574913,1.97164 0,0 -2.21e-4,6.3e-4 -2.21e-4,6.3e-4 -0.0013,0.005 -0.0026,0.009 -0.0039,0.0137 -0.165784,0.59208 -0.166785,1.16103 0.02547,1.7064 0.172664,0.48979 0.491362,0.93396 0.93856,1.35284 0.40339,0.37785 0.902693,0.72799 1.491855,1.08438 0.546799,0.33076 1.113891,0.63417 1.768216,0.99181 1.0706,0.58518 2.393077,1.31887 3.353008,2.26351 0.196876,0.19374 0.382718,0.39987 0.552244,0.62014 0.210989,0.27413 0.395839,0.56391 0.548813,0.8741 0.272787,0.55314 0.450897,1.18474 0.484793,1.92661 0.03314,0.692 -0.07598,1.29081 -0.296782,1.8083 -0.221518,0.51917 -0.559333,0.96498 -0.990031,1.33666 -0.86552,0.74691 -2.080822,1.17072 -3.335072,1.26735 -0.207053,0.016 -0.414422,0.0229 -0.620523,0.021 -1.039746,-0.01 -2.02557,-0.27318 -2.762284,-0.69511 -0.442883,-0.25365 -0.781339,-0.55583 -0.998317,-0.88032 -0.122466,-0.18315 -0.204449,-0.37043 -0.249134,-0.56016 -0.03353,-0.14238 -0.06494,-0.28967 -0.06168,-0.44633 l -0.559992,-0.0117 c -0.0045,0.21597 0.01558,0.42672 0.08631,0.62262 0.09274,0.25687 0.239356,0.48507 0.422669,0.68464 0.320947,0.3494 0.75905,0.61675 1.250952,0.81658 0.819118,0.33275 1.837431,0.4988 2.870618,0.52275 0.207356,0.005 0.416304,0.003 0.625475,-0.006 1.24989,-0.0553 2.538989,-0.37082 3.537537,-1.06808 0.502395,-0.35081 0.937856,-0.80314 1.251377,-1.37376 0.314154,-0.57178 0.50088,-1.25389 0.512007,-2.04819 0.01042,-0.84043 -0.155259,-1.58716 -0.461165,-2.2522 -0.170249,-0.37013 -0.382122,-0.71095 -0.626423,-1.02516 -0.195872,-0.25193 -0.407951,-0.48407 -0.628682,-0.69862 -1.059508,-1.0298 -2.487372,-1.79725 -3.55014,-2.35944 -0.671892,-0.35542 -1.218543,-0.63597 -1.758883,-0.94779 -0.575784,-0.33227 -1.038921,-0.64218 -1.40566,-0.96377 -0.403224,-0.35358 -0.669298,-0.70438 -0.819429,-1.07117 -0.165411,-0.40413 -0.198448,-0.84974 -0.08304,-1.36082 l -0.0041,0.0144 c 0.229773,-0.83403 0.703263,-1.4511 1.24488,-1.88382 0.575303,-0.45963 1.306453,-0.77382 2.107581,-0.88575 0.699544,-0.0977 1.539261,-0.0499 2.357326,0.29326 0.567521,0.23807 1.174529,0.64212 1.653895,1.29535 0.08386,0.11427 0.151239,0.2414 0.218306,0.37025 z"
       id="path4531-7-7-9"
       inkscape:connector-curvature="0"
       sodipodi:nodetypes="ccsc" />
    <path
       inkscape:original-d="m 22.748771,151.46471 c 0,0 -3.664613,2.8173 2.065128,6.71995 9.074329,6.10927 2.217521,10.74087 1.502855,10.43409"
       inkscape:path-effect="#path-effect4637-5-2"
       style="fill:#000000;fill-rule:nonzero;stroke:none;stroke-width:0.26458332px;stroke-linecap:butt;stroke-linejoin:miter;stroke-opacity:1"
       d="m 22.74999,151.4663 c 8.2e-5,-7e-5 -0.160149,0.14523 -0.386406,0.38288 -0.03341,0.0351 -0.06789,0.0727 -0.103005,0.11271 -0.270607,0.30855 -0.58815,0.77402 -0.725697,1.3829 -0.06909,0.30584 -0.09299,0.64914 -0.04122,1.02583 0.0518,0.37688 0.178973,0.78397 0.408454,1.21533 0.454422,0.85418 1.302806,1.7904 2.730397,2.77033 0.0146,0.01 0.02927,0.02 0.044,0.0301 2.246295,1.5127 3.497001,2.90562 4.119989,4.13647 0.311655,0.61574 0.468855,1.19593 0.512436,1.73684 0.04363,0.5415 -0.02636,1.04761 -0.173687,1.51217 -0.295522,0.93184 -0.899364,1.68589 -1.487626,2.19042 -0.07622,0.0654 -0.152003,0.12639 -0.226604,0.18292 -0.211991,0.16064 -0.416501,0.28087 -0.592989,0.36055 -0.119324,0.0539 -0.225401,0.089 -0.312308,0.10589 -0.04345,0.008 -0.08185,0.0122 -0.114634,0.0117 -0.03285,-5.9e-4 -0.05954,-0.006 -0.08009,-0.0144 l -0.0085,0.0198 c 0.02412,0.0104 0.05408,0.0149 0.08855,0.0144 0.03453,-5e-4 0.07408,-0.006 0.117902,-0.0162 0.08761,-0.0203 0.193293,-0.0591 0.312116,-0.11447 0.175783,-0.0819 0.381523,-0.20028 0.602473,-0.3497 0.07788,-0.0527 0.15742,-0.10971 0.237845,-0.17103 0.614818,-0.46881 1.292268,-1.19673 1.665752,-2.14806 0.187309,-0.47711 0.298959,-1.01273 0.285096,-1.59988 -0.01387,-0.58761 -0.153438,-1.22279 -0.46384,-1.8956 -0.620762,-1.34554 -1.915596,-2.82279 -4.208208,-4.3659 -0.01321,-0.009 -0.02745,-0.0187 -0.04163,-0.0284 -1.385082,-0.94914 -2.202579,-1.80861 -2.662714,-2.56326 -0.232661,-0.38157 -0.376244,-0.74003 -0.454468,-1.07435 -0.0783,-0.33467 -0.0918,-0.64826 -0.06091,-0.93858 0.0621,-0.5835 0.303066,-1.06558 0.540344,-1.40769 0.03024,-0.0436 0.06029,-0.0847 0.08971,-0.12331 0.200018,-0.26219 0.387667,-0.38397 0.387012,-0.38347 z"
       id="path4533-6-5-4"
       inkscape:connector-curvature="0"
       sodipodi:nodetypes="ccc" />
    <path
       inkscape:original-d="m 31.620475,151.48793 c 0,0 3.580468,-0.18602 4.996366,7.59658"
       inkscape:path-effect="#path-effect4629-1-2"
       style="fill:#000000;fill-rule:nonzero;stroke:none;stroke-width:0.47273844;stroke-linecap:butt;stroke-linejoin:miter;stroke-miterlimit:4;stroke-dasharray:none;stroke-opacity:1"
       d="m 31.632789,151.72494 c -0.01997,0.001 0.157714,-0.0162 0.502881,0.0835 0.32862,0.0949 0.790265,0.29759 1.302415,0.73244 0.562778,0.47783 1.118434,1.17766 1.625947,2.16015 0.115242,0.2231 0.225342,0.45559 0.330549,0.69683 0.418477,0.95954 0.864431,2.15697 1.196352,3.69134 l 0.05182,-0.009 c -0.229761,-1.55225 -0.515345,-2.81564 -0.911847,-3.8214 -0.0993,-0.25189 -0.205022,-0.49587 -0.31728,-0.73093 -0.493618,-1.0336 -1.06778,-1.79869 -1.676315,-2.33288 -0.55711,-0.48905 -1.078238,-0.72764 -1.468884,-0.84212 -0.400452,-0.11735 -0.655226,-0.10181 -0.660262,-0.10155 z"
       id="path4587-2-7-6"
       inkscape:connector-curvature="0"
       sodipodi:nodetypes="cc" />
    <path
       inkscape:original-d="m 41.625031,151.03934 c 0,0 -6.080802,5.77536 -6.088492,17.77161"
       inkscape:path-effect="#path-effect4635-7-3"
       style="fill:#000000;fill-rule:nonzero;stroke:none;stroke-width:0;stroke-linecap:butt;stroke-linejoin:miter;stroke-miterlimit:4;stroke-dasharray:none;stroke-opacity:1"
       d="m 41.711043,151.1299 c 0.0022,-0.002 -0.118529,0.10216 -0.31287,0.3288 -0.315,0.36736 -0.841642,1.03395 -1.449873,1.99744 -0.414189,0.65611 -0.803301,1.35036 -1.1623,2.07498 -1.123829,2.26836 -1.727351,4.37733 -2.062541,5.85323 -0.313176,1.37897 -0.453407,2.48958 -0.507474,2.93907 -0.0086,0.0717 -0.281993,2.18778 -0.283468,4.48778 l -0.791956,-5e-4 c 0.0017,-2.61148 0.281176,-4.26331 0.332483,-4.59037 0.0701,-0.44683 0.258041,-1.60105 0.618681,-2.98982 0.387283,-1.49135 1.070086,-3.64238 2.289613,-5.90853 0.389956,-0.72462 0.81266,-1.41937 1.260663,-2.06822 0.65861,-0.95387 1.230932,-1.60366 1.570672,-1.96235 0.209828,-0.22153 0.324195,-0.34059 0.326346,-0.34263 z"
       id="path4589-3-1-6"
       inkscape:connector-curvature="0"
       sodipodi:nodetypes="cc" />
    <path
       style="fill:none;stroke:#00ff00;stroke-width:0.26458332px;stroke-linecap:butt;stroke-linejoin:miter;stroke-opacity:1"
       d="M 16.976068,159.82516 H 47.642732"
       id="path4539-2-2"
       inkscape:connector-curvature="0" />
    <path
       inkscape:original-d="m 41.107484,150.85138 c 0,0 -3.773839,4.05478 -4.567473,7.21936"
       inkscape:path-effect="#path-effect4633-7-7"
       style="fill:#000000;fill-rule:nonzero;stroke:none;stroke-width:0.26631129px;stroke-linecap:butt;stroke-linejoin:miter;stroke-opacity:1"
       d="m 41.138144,150.87992 c 0,0 0,0 0,0 0.0132,0.0109 -0.914778,1.03608 -1.939973,2.45125 -0.512857,0.70794 -1.049183,1.5122 -1.504842,2.33562 -0.181889,0.32869 -0.350684,0.65999 -0.499889,0.98905 -0.212539,0.46874 -0.395063,0.92833 -0.513748,1.37143 -0.0066,0.0246 -0.01285,0.0492 -0.019,0.0737 l -0.15095,0.0904 -0.09042,-0.15095 c 0.0064,-0.0256 0.01309,-0.0511 0.01979,-0.0768 0.120416,-0.46119 0.295431,-0.94029 0.52,-1.41624 0.157562,-0.33393 0.334728,-0.66855 0.524541,-0.99889 0.475147,-0.82692 1.031103,-1.6297 1.560893,-2.33102 1.059974,-1.40316 2.019144,-2.40554 2.032274,-2.39467 z"
       id="path4591-5-0-7"
       inkscape:connector-curvature="0"
       sodipodi:nodetypes="cc" />
    <path
       style="fill:none;stroke:#00ff00;stroke-width:0.26458332px;stroke-linecap:butt;stroke-linejoin:miter;stroke-opacity:1"
       d="m 30.861165,145.18979 v 30.66666"
       id="path4539-91-6"
       inkscape:connector-curvature="0" />
    <circle
       style="opacity:1;fill:none;fill-opacity:1;stroke:#000000;stroke-width:1.1971302;stroke-linecap:butt;stroke-linejoin:round;stroke-miterlimit:4;stroke-dasharray:none;stroke-opacity:1"
       id="path4723-2-1"
       cx="30.861456"
       cy="159.815"
       r="15.605287" />
    <circle
       style="opacity:1;fill:none;fill-opacity:1;stroke:#000000;stroke-width:0.26839411;stroke-linecap:butt;stroke-linejoin:round;stroke-miterlimit:4;stroke-dasharray:none;stroke-opacity:1"
       id="path4723-6-3-9"
       cx="30.861021"
       cy="159.81448"
       r="14.643226" />
    <path
       inkscape:original-d="m 67.7618,156.70907 c -1.581042,-3.0373 -6.553317,-2.7184 -7.605468,0.61195 -1.1816,4.63724 9.153695,4.41828 9.248195,10.74938 0.0887,5.94524 -10.007315,5.30766 -9.935385,1.85063"
       inkscape:path-effect="#path-effect4631-8-5-3"
       style="fill:#000000;fill-rule:nonzero;stroke:none;stroke-width:0.465;stroke-linecap:butt;stroke-linejoin:miter;stroke-miterlimit:4;stroke-dasharray:none;stroke-opacity:1"
       d="m 67.533048,156.82814 c -0.05871,-0.11279 -0.127947,-0.21686 -0.19051,-0.32313 -0.358242,-0.6085 -0.851001,-1.03397 -1.352085,-1.31942 -0.721138,-0.4108 -1.517898,-0.56881 -2.230014,-0.56238 -0.808554,0.007 -1.607259,0.22446 -2.281426,0.64648 -0.633873,0.3968 -1.243766,1.03103 -1.574913,1.97164 0,0 -2.21e-4,6.3e-4 -2.21e-4,6.3e-4 -0.0013,0.005 -0.0026,0.009 -0.0039,0.0137 -0.165784,0.59208 -0.166785,1.16103 0.02547,1.7064 0.172664,0.48979 0.491362,0.93396 0.93856,1.35284 0.40339,0.37785 0.902693,0.72799 1.491855,1.08438 0.546799,0.33076 1.113891,0.63417 1.768216,0.99181 1.0706,0.58518 2.393077,1.31887 3.353008,2.26351 0.196876,0.19374 0.382718,0.39987 0.552244,0.62014 0.210989,0.27413 0.395839,0.56391 0.548813,0.8741 0.272787,0.55314 0.450897,1.18474 0.484793,1.92661 0.03314,0.692 -0.07598,1.29081 -0.296782,1.8083 -0.221518,0.51917 -0.559333,0.96498 -0.990031,1.33666 -0.86552,0.74691 -2.080822,1.17072 -3.335072,1.26735 -0.207053,0.016 -0.414422,0.0229 -0.620523,0.021 -1.039746,-0.01 -2.02557,-0.27318 -2.762284,-0.69511 -0.442883,-0.25365 -0.781339,-0.55583 -0.998317,-0.88032 -0.122466,-0.18315 -0.204449,-0.37043 -0.249134,-0.56016 -0.03353,-0.14238 -0.06494,-0.28967 -0.06168,-0.44633 l -0.559992,-0.0117 c -0.0045,0.21597 0.01558,0.42672 0.08631,0.62262 0.09274,0.25687 0.239356,0.48507 0.422669,0.68464 0.320947,0.3494 0.75905,0.61675 1.250952,0.81658 0.819118,0.33275 1.837431,0.4988 2.870618,0.52275 0.207356,0.005 0.416304,0.003 0.625475,-0.006 1.24989,-0.0553 2.538989,-0.37082 3.537537,-1.06808 0.502395,-0.35081 0.937856,-0.80314 1.251377,-1.37376 0.314154,-0.57178 0.50088,-1.25389 0.512007,-2.04819 0.01042,-0.84043 -0.155259,-1.58716 -0.461165,-2.2522 -0.170249,-0.37013 -0.382122,-0.71095 -0.626423,-1.02516 -0.195872,-0.25193 -0.407951,-0.48407 -0.628682,-0.69862 -1.059508,-1.0298 -2.487372,-1.79725 -3.55014,-2.35944 -0.671892,-0.35542 -1.218543,-0.63597 -1.758883,-0.94779 -0.575784,-0.33227 -1.038921,-0.64218 -1.40566,-0.96377 -0.403224,-0.35358 -0.669298,-0.70438 -0.819429,-1.07117 -0.165411,-0.40413 -0.198448,-0.84974 -0.08305,-1.36082 l -0.0041,0.0144 c 0.229773,-0.83403 0.703263,-1.4511 1.24488,-1.88382 0.575303,-0.45963 1.306453,-0.77382 2.107581,-0.88575 0.699544,-0.0977 1.539261,-0.0499 2.357326,0.29326 0.567521,0.23807 1.174529,0.64212 1.653895,1.29535 0.08386,0.11427 0.151239,0.2414 0.218306,0.37025 z"
       id="path4531-7-7-9-2"
       inkscape:connector-curvature="0"
       sodipodi:nodetypes="ccsc" />
    <path
       inkscape:original-d="m 61.92591,155.20815 c 0,0 -3.664613,2.8173 2.065128,6.71995 9.074329,6.10927 2.217521,10.74087 1.502855,10.43409"
       inkscape:path-effect="#path-effect4637-5-2-0"
       style="fill:#000000;fill-rule:nonzero;stroke:none;stroke-width:0.26458332px;stroke-linecap:butt;stroke-linejoin:miter;stroke-opacity:1"
       d="m 61.927129,155.20974 c 8.2e-5,-7e-5 -0.160149,0.14523 -0.386406,0.38288 -0.03341,0.0351 -0.06789,0.0727 -0.103005,0.11271 -0.270607,0.30855 -0.58815,0.77402 -0.725697,1.3829 -0.06909,0.30584 -0.09299,0.64914 -0.04122,1.02583 0.0518,0.37688 0.178973,0.78397 0.408454,1.21533 0.454422,0.85418 1.302806,1.7904 2.730397,2.77033 0.01461,0.01 0.02927,0.02 0.044,0.0301 2.246295,1.5127 3.497001,2.90562 4.119989,4.13647 0.311655,0.61574 0.468855,1.19593 0.512436,1.73684 0.04363,0.5415 -0.02636,1.04761 -0.173687,1.51217 -0.295522,0.93184 -0.899364,1.68589 -1.487626,2.19042 -0.07622,0.0654 -0.152003,0.12639 -0.226604,0.18292 -0.211991,0.16064 -0.416501,0.28087 -0.592989,0.36055 -0.119324,0.0539 -0.225401,0.089 -0.312308,0.10589 -0.04345,0.008 -0.08185,0.0122 -0.114634,0.0116 -0.03285,-5.9e-4 -0.05954,-0.006 -0.08009,-0.0144 l -0.0085,0.0198 c 0.02412,0.0104 0.05408,0.0149 0.08855,0.0144 0.03453,-5e-4 0.07408,-0.006 0.117902,-0.0162 0.08761,-0.0203 0.193293,-0.0591 0.312116,-0.11447 0.175783,-0.0819 0.381523,-0.20028 0.602473,-0.3497 0.07788,-0.0527 0.15742,-0.10971 0.237845,-0.17103 0.614818,-0.46881 1.292268,-1.19673 1.665752,-2.14806 0.187309,-0.47711 0.298959,-1.01273 0.285096,-1.59988 -0.01387,-0.58761 -0.153438,-1.22279 -0.46384,-1.8956 -0.620762,-1.34554 -1.915596,-2.82279 -4.208208,-4.3659 -0.01321,-0.009 -0.02745,-0.0187 -0.04163,-0.0284 -1.385082,-0.94914 -2.202579,-1.80861 -2.662714,-2.56326 -0.232661,-0.38157 -0.376244,-0.74003 -0.454468,-1.07435 -0.0783,-0.33467 -0.0918,-0.64826 -0.06091,-0.93858 0.0621,-0.5835 0.303066,-1.06558 0.540344,-1.40769 0.03024,-0.0436 0.06029,-0.0847 0.08971,-0.12331 0.200018,-0.26219 0.387667,-0.38397 0.387012,-0.38347 z"
       id="path4533-6-5-4-7"
       inkscape:connector-curvature="0"
       sodipodi:nodetypes="ccc" />
    <path
       inkscape:original-d="m 70.797614,155.23137 c 0,0 3.580468,-0.18602 4.996366,7.59658"
       inkscape:path-effect="#path-effect4629-1-2-2"
       style="fill:#000000;fill-rule:nonzero;stroke:none;stroke-width:0.47273844;stroke-linecap:butt;stroke-linejoin:miter;stroke-miterlimit:4;stroke-dasharray:none;stroke-opacity:1"
       d="m 70.809928,155.46838 c 0,0 0,0 0,0 -0.01997,0.001 0.157714,-0.0162 0.50288,0.0835 0.328621,0.0949 0.790266,0.29759 1.302416,0.73244 0.562778,0.47783 1.118434,1.17766 1.625947,2.16015 0.115242,0.2231 0.225342,0.45559 0.330549,0.69683 0.418477,0.95954 0.864431,2.15697 1.196352,3.69134 l 0.05182,-0.009 c -0.229761,-1.55225 -0.515345,-2.81564 -0.911847,-3.8214 -0.0993,-0.25189 -0.205022,-0.49587 -0.31728,-0.73093 -0.493618,-1.0336 -1.06778,-1.79869 -1.676315,-2.33288 -0.557111,-0.48905 -1.078238,-0.72764 -1.468884,-0.84212 -0.400452,-0.11735 -0.655226,-0.10181 -0.660262,-0.10155 z"
       id="path4587-2-7-6-0"
       inkscape:connector-curvature="0"
       sodipodi:nodetypes="cc" />
    <path
       inkscape:original-d="m 80.802169,154.78278 c 0,0 -6.080801,5.77536 -6.088491,17.77161"
       inkscape:path-effect="#path-effect4635-7-3-6"
       style="fill:#000000;fill-rule:nonzero;stroke:none;stroke-width:0;stroke-linecap:butt;stroke-linejoin:miter;stroke-miterlimit:4;stroke-dasharray:none;stroke-opacity:1"
       d="m 80.888181,154.87334 c 0,0 0,0 0,0 0.0022,-0.002 -0.118529,0.10216 -0.31287,0.3288 -0.315,0.36736 -0.841642,1.03395 -1.449873,1.99744 -0.414189,0.65611 -0.803301,1.35036 -1.1623,2.07498 -1.123828,2.26836 -1.727351,4.37733 -2.062541,5.85323 -0.313175,1.37897 -0.453406,2.48958 -0.507473,2.93907 -0.0086,0.0717 -0.281993,2.18778 -0.283468,4.48778 l -0.791956,-5e-4 c 0.0017,-2.61148 0.281176,-4.26331 0.332483,-4.59037 0.0701,-0.44683 0.258041,-1.60105 0.618681,-2.98982 0.387283,-1.49135 1.070086,-3.64238 2.289613,-5.90853 0.389955,-0.72462 0.812659,-1.41937 1.260662,-2.06822 0.65861,-0.95387 1.230932,-1.60366 1.570672,-1.96235 0.209828,-0.22153 0.324195,-0.34059 0.326346,-0.34263 z"
       id="path4589-3-1-6-6"
       inkscape:connector-curvature="0"
       sodipodi:nodetypes="cc" />
    <path
       inkscape:original-d="m 80.284623,154.59482 c 0,0 -3.773839,4.05478 -4.567473,7.21936"
       inkscape:path-effect="#path-effect4633-7-7-7"
       style="fill:#000000;fill-rule:nonzero;stroke:none;stroke-width:0.26631129px;stroke-linecap:butt;stroke-linejoin:miter;stroke-opacity:1"
       d="m 80.315283,154.62336 c 6.92e-4,-0.002 -0.910488,1.04224 -1.913265,2.47101 -0.501971,0.71522 -1.025595,1.52484 -1.471878,2.34951 -0.447051,0.8261 -0.811446,1.65798 -1.003275,2.42289 l -0.262309,0.15712 -0.157121,-0.2623 c 0.205091,-0.81779 0.609931,-1.67888 1.093689,-2.50328 0.484579,-0.8258 1.053213,-1.62306 1.593857,-2.31712 1.082377,-1.3895 2.058586,-2.37392 2.058982,-2.37491 z"
       id="path4591-5-0-7-9"
       inkscape:connector-curvature="0"
       sodipodi:nodetypes="cc" />
    <circle
       style="opacity:1;fill:none;fill-opacity:1;stroke:#000000;stroke-width:1.33894932;stroke-linecap:butt;stroke-linejoin:round;stroke-miterlimit:4;stroke-dasharray:none;stroke-opacity:1"
       id="path4723-2-1-0"
       cx="70.038597"
       cy="163.55846"
       r="17.453981" />
    <circle
       style="opacity:1;fill:none;fill-opacity:1;stroke:#000000;stroke-width:0.30018967;stroke-linecap:butt;stroke-linejoin:round;stroke-miterlimit:4;stroke-dasharray:none;stroke-opacity:1"
       id="path4723-6-3-9-7"
       cx="70.038109"
       cy="163.55788"
       r="16.377949" />
  </g>
</svg>
