<?xml version="1.0" encoding="UTF-8" standalone="no"?>
<!-- Created with Inkscape (http://www.inkscape.org/) -->

<svg
   xmlns:dc="http://purl.org/dc/elements/1.1/"
   xmlns:cc="http://creativecommons.org/ns#"
   xmlns:rdf="http://www.w3.org/1999/02/22-rdf-syntax-ns#"
   xmlns:svg="http://www.w3.org/2000/svg"
   xmlns="http://www.w3.org/2000/svg"
   xmlns:sodipodi="http://sodipodi.sourceforge.net/DTD/sodipodi-0.dtd"
   xmlns:inkscape="http://www.inkscape.org/namespaces/inkscape"
   width="137"
   height="137"
   viewBox="0 0 36.247916 36.247917"
   version="1.1"
   id="svg5056"
   inkscape:version="0.92.1 r15371"
   sodipodi:docname="logo_v1.0.svg">
  <defs
     id="defs5050">
    <inkscape:path-effect
       effect="powerstroke"
       id="path-effect4633-7-7-7"
       is_visible="true"
       offset_points="0,-0.041885131 | 0.80829731,-0.19939829 | 0.99269958,-0.21621518"
       sort_points="true"
       interpolator_type="CubicBezierFit"
       interpolator_beta="0.2"
       start_linecap_type="butt"
       linejoin_type="extrp_arc"
       miter_limit="4"
       end_linecap_type="peak" />
    <inkscape:path-effect
       effect="powerstroke"
       id="path-effect4635-7-3-6"
       is_visible="true"
       offset_points="0.99779665,-0.39598941 | 0.1389513,-0.12490021 | 0.36388169,-0.18356501"
       sort_points="true"
       interpolator_type="CubicBezierFit"
       interpolator_beta="0.2"
       start_linecap_type="butt"
       linejoin_type="extrp_arc"
       miter_limit="4"
       end_linecap_type="butt" />
    <inkscape:path-effect
       effect="powerstroke"
       id="path-effect4629-1-2-2"
       is_visible="true"
       offset_points="1,0.026333822 | 0.26382867,0.23733737 | 0.80150009,0.18205302"
       sort_points="true"
       interpolator_type="CubicBezierFit"
       interpolator_beta="0.2"
       start_linecap_type="butt"
       linejoin_type="extrp_arc"
       miter_limit="4"
       end_linecap_type="butt" />
    <inkscape:path-effect
       effect="powerstroke"
       id="path-effect4637-5-2-0"
       is_visible="true"
       offset_points="0.21784029,-0.0020003571 | 0.99746726,0.24404272 | 1.782551,0.010762601"
       sort_points="true"
       interpolator_type="CubicBezierFit"
       interpolator_beta="0.2"
       start_linecap_type="butt"
       linejoin_type="extrp_arc"
       miter_limit="4"
       end_linecap_type="butt" />
    <inkscape:path-effect
       effect="powerstroke"
       id="path-effect4631-8-5-3"
       is_visible="true"
       offset_points="0.039795847,-0.25789532 | 0.4002304,-0.057036209 | 1.8051609,0.39776832 | 2.5415625,0.026508111 | 2.9460329,0.280064"
       sort_points="true"
       interpolator_type="CubicBezierFit"
       interpolator_beta="0.2"
       start_linecap_type="butt"
       linejoin_type="extrp_arc"
       miter_limit="4"
       end_linecap_type="butt" />
  </defs>
  <sodipodi:namedview
     id="base"
     pagecolor="#ffffff"
     bordercolor="#666666"
     borderopacity="1.0"
     inkscape:pageopacity="0.0"
     inkscape:pageshadow="2"
     inkscape:zoom="5.6"
     inkscape:cx="63.471706"
     inkscape:cy="89.469182"
     inkscape:document-units="mm"
     inkscape:current-layer="layer1"
     showgrid="false"
     inkscape:window-width="2560"
     inkscape:window-height="1330"
     inkscape:window-x="-12"
     inkscape:window-y="-12"
     inkscape:window-maximized="1"
     units="px"
     fit-margin-top="0"
     fit-margin-left="0"
     fit-margin-right="0"
     fit-margin-bottom="0" />
  <metadata
     id="metadata5053">
    <rdf:RDF>
      <cc:Work
         rdf:about="">
        <dc:format>image/svg+xml</dc:format>
        <dc:type
           rdf:resource="http://purl.org/dc/dcmitype/StillImage" />
        <dc:title></dc:title>
      </cc:Work>
    </rdf:RDF>
  </metadata>
  <g
     inkscape:label="Layer 1"
     inkscape:groupmode="layer"
     id="layer1"
     transform="translate(-44.95132,-54.452176)">
    <path
       inkscape:original-d="m 60.79842,65.726559 c -1.581086,-3.037385 -6.553498,-2.718476 -7.605679,0.611966 -1.181632,4.637369 9.153949,4.418403 9.248451,10.749679 0.0887,5.945405 -10.007591,5.307808 -9.935659,1.850681"
       inkscape:path-effect="#path-effect4631-8-5-3"
       style="fill:#000000;fill-rule:nonzero;stroke:none;stroke-width:0.46501288;stroke-linecap:butt;stroke-linejoin:miter;stroke-miterlimit:4;stroke-dasharray:none;stroke-opacity:1"
       d="m 60.569662,65.845637 c -0.05872,-0.112797 -0.127951,-0.216872 -0.190516,-0.323142 -0.358251,-0.608518 -0.851024,-1.034005 -1.352122,-1.319459 -0.721158,-0.410814 -1.51794,-0.56883 -2.230076,-0.562392 -0.808576,0.0073 -1.607303,0.22446 -2.281489,0.646496 -0.633891,0.396811 -1.2438,1.031055 -1.574957,1.971695 0,0 -2.21e-4,6.28e-4 -2.21e-4,6.28e-4 -0.0013,0.0046 -0.0026,0.0092 -0.0039,0.01375 -0.165789,0.592097 -0.16679,1.161068 0.02547,1.706452 0.17267,0.489802 0.491376,0.933986 0.938587,1.352881 0.403402,0.377859 0.902718,0.728007 1.491896,1.084402 0.546815,0.330769 1.113922,0.634191 1.768265,0.991845 1.07063,0.58519 2.393143,1.318902 3.353101,2.263572 0.196882,0.193747 0.382728,0.399881 0.552259,0.620152 0.210995,0.274146 0.39585,0.563933 0.548828,0.87413 0.272795,0.553154 0.45091,1.184766 0.484806,1.926658 0.03315,0.692023 -0.07598,1.290848 -0.29679,1.808355 -0.221524,0.51918 -0.559349,0.965003 -0.990059,1.336692 -0.865544,0.746938 -2.080879,1.170759 -3.335164,1.267385 -0.207059,0.01595 -0.414433,0.0229 -0.62054,0.02098 -1.039774,-0.0097 -2.025625,-0.27319 -2.76236,-0.695136 -0.442894,-0.253658 -0.78136,-0.555845 -0.998344,-0.880342 -0.122469,-0.183151 -0.204454,-0.370438 -0.24914,-0.560179 -0.03353,-0.142379 -0.06495,-0.289669 -0.06169,-0.446342 l -0.560006,-0.01165 c -0.0045,0.215971 0.01558,0.426729 0.08631,0.622631 0.09274,0.256878 0.239362,0.485089 0.42268,0.684661 0.320956,0.349415 0.759071,0.616771 1.250986,0.816604 0.819141,0.332762 1.837482,0.49881 2.870697,0.522764 0.207362,0.0048 0.416316,0.0028 0.625492,-0.0065 1.249925,-0.05531 2.539059,-0.370826 3.537634,-1.068105 0.50241,-0.350819 0.937883,-0.803159 1.251412,-1.3738 0.314164,-0.571795 0.500895,-1.253923 0.512023,-2.048242 0.01042,-0.840462 -0.155264,-1.587212 -0.461178,-2.252271 -0.170254,-0.370134 -0.382132,-0.710963 -0.62644,-1.025188 -0.195878,-0.251936 -0.407963,-0.484083 -0.6287,-0.698631 -1.059537,-1.02983 -2.48744,-1.797307 -3.550238,-2.359507 -0.67191,-0.355429 -1.218577,-0.635992 -1.758932,-0.947821 -0.575799,-0.332283 -1.038949,-0.642201 -1.405698,-0.963798 -0.403235,-0.35359 -0.669317,-0.704392 -0.819453,-1.071201 -0.165415,-0.404138 -0.198453,-0.849759 -0.08305,-1.36085 l -0.0041,0.01437 c 0.22978,-0.834046 0.703283,-1.451135 1.244915,-1.883869 0.575319,-0.459647 1.306489,-0.773845 2.107639,-0.885776 0.699563,-0.09774 1.539304,-0.04991 2.357392,0.293271 0.567536,0.238074 1.174561,0.642137 1.65394,1.295379 0.08386,0.114278 0.151243,0.241416 0.218312,0.370261 z"
       id="path4531-7-7-9-2"
       inkscape:connector-curvature="0"
       sodipodi:nodetypes="ccsc" />
    <path
       inkscape:original-d="m 54.962368,64.225597 c 0,0 -3.664714,2.817378 2.065185,6.720136 9.074581,6.10944 2.217583,10.741168 1.502897,10.43438"
       inkscape:path-effect="#path-effect4637-5-2-0"
       style="fill:#000000;fill-rule:nonzero;stroke:none;stroke-width:0.26459065px;stroke-linecap:butt;stroke-linejoin:miter;stroke-opacity:1"
       d="m 54.963587,64.227183 c 8.2e-5,-6.3e-5 -0.160153,0.145233 -0.386417,0.382899 -0.03341,0.03509 -0.0679,0.07267 -0.103008,0.112707 -0.270614,0.308559 -0.588165,0.77404 -0.725716,1.382939 -0.06909,0.305845 -0.093,0.649162 -0.04122,1.025862 0.0518,0.376886 0.178979,0.783994 0.408465,1.215363 0.454435,0.854204 1.302843,1.790452 2.730473,2.770404 0.01461,0.01002 0.02927,0.02005 0.044,0.03009 2.246357,1.512742 3.497098,2.905701 4.120103,4.136584 0.311665,0.615762 0.468869,1.195966 0.512451,1.736892 0.04363,0.541514 -0.02636,1.04764 -0.173692,1.512211 -0.29553,0.931863 -0.899389,1.685938 -1.487667,2.190477 -0.07622,0.06537 -0.152007,0.126398 -0.226611,0.182929 -0.211996,0.160641 -0.416512,0.280877 -0.593005,0.360563 -0.119327,0.05388 -0.225407,0.08903 -0.312316,0.105891 -0.04345,0.0084 -0.08185,0.01224 -0.114638,0.01165 -0.03285,-5.95e-4 -0.05954,-0.0056 -0.08009,-0.01442 l -0.0085,0.01978 c 0.02413,0.01036 0.05408,0.01487 0.08855,0.01438 0.03453,-4.97e-4 0.07408,-0.006 0.117905,-0.01616 0.08761,-0.02026 0.193299,-0.05914 0.312125,-0.114474 0.175788,-0.08186 0.381534,-0.200286 0.60249,-0.349708 0.07788,-0.05267 0.157425,-0.109709 0.237851,-0.171036 0.614836,-0.468823 1.292305,-1.196757 1.665799,-2.148119 0.187314,-0.477124 0.298967,-1.012753 0.285104,-1.599927 -0.01387,-0.587621 -0.153443,-1.222819 -0.463853,-1.895654 -0.620779,-1.345576 -1.91565,-2.822866 -4.208325,-4.366021 -0.01321,-0.009 -0.02745,-0.01872 -0.04163,-0.02844 -1.38512,-0.949163 -2.20264,-1.808659 -2.662787,-2.563325 -0.232668,-0.381588 -0.376255,-0.740054 -0.454481,-1.074386 -0.07831,-0.334673 -0.09181,-0.648272 -0.06091,-0.938599 0.0621,-0.583523 0.303074,-1.065613 0.540359,-1.407736 0.03024,-0.04361 0.06029,-0.08474 0.08972,-0.123312 0.200024,-0.262195 0.387678,-0.383978 0.387023,-0.383474 z"
       id="path4533-6-5-4-7"
       inkscape:connector-curvature="0"
       sodipodi:nodetypes="ccc" />
    <path
       inkscape:original-d="m 63.834319,64.248817 c 0,0 3.580567,-0.186024 4.996504,7.596791"
       inkscape:path-effect="#path-effect4629-1-2-2"
       style="fill:#000000;fill-rule:nonzero;stroke:none;stroke-width:0.47275156;stroke-linecap:butt;stroke-linejoin:miter;stroke-miterlimit:4;stroke-dasharray:none;stroke-opacity:1"
       d="m 63.846633,64.485835 c -0.01997,0.001 0.157718,-0.01618 0.502895,0.08353 0.328629,0.09493 0.790287,0.297598 1.302451,0.732457 0.562793,0.477846 1.118465,1.177688 1.625992,2.160213 0.115246,0.223104 0.225349,0.455602 0.330558,0.696842 0.418489,0.959573 0.864456,2.157028 1.196385,3.691449 l 0.05182,-0.0094 c -0.229768,-1.552285 -0.51536,-2.81571 -0.911873,-3.821504 -0.0993,-0.251893 -0.205027,-0.495885 -0.317289,-0.730952 -0.49363,-1.033628 -1.067809,-1.79874 -1.67636,-2.332943 -0.557126,-0.48906 -1.078269,-0.72766 -1.468925,-0.842142 -0.400463,-0.117355 -0.655245,-0.101815 -0.66028,-0.101554 z"
       id="path4587-2-7-6-0"
       inkscape:connector-curvature="0"
       sodipodi:nodetypes="cc" />
    <path
       inkscape:original-d="m 73.83915,63.800215 c 0,0 -6.080968,5.775521 -6.088659,17.772102"
       inkscape:path-effect="#path-effect4635-7-3-6"
       style="fill:#000000;fill-rule:nonzero;stroke:none;stroke-width:0;stroke-linecap:butt;stroke-linejoin:miter;stroke-miterlimit:4;stroke-dasharray:none;stroke-opacity:1"
       d="m 73.925164,63.890778 c 0.0022,-0.0021 -0.118532,0.102165 -0.312878,0.328813 -0.315008,0.367364 -0.841665,1.033979 -1.449913,1.997492 -0.4142,0.656126 -0.803323,1.3504 -1.162332,2.075034 -1.123859,2.26843 -1.727398,4.377455 -2.062597,5.853397 -0.313185,1.379008 -0.453419,2.489651 -0.507488,2.939147 -0.0086,0.07171 -0.282001,2.187847 -0.283476,4.48791 l -0.791978,-5.08e-4 c 0.0017,-2.61155 0.281184,-4.263428 0.332492,-4.590492 0.0701,-0.44684 0.258048,-1.6011 0.618698,-2.989899 0.387294,-1.4914 1.070116,-3.642481 2.289676,-5.908694 0.389966,-0.724643 0.812683,-1.419414 1.260698,-2.068281 0.658628,-0.953902 1.230966,-1.60371 1.570715,-1.962403 0.209834,-0.221534 0.324203,-0.340598 0.326355,-0.342642 z"
       id="path4589-3-1-6-6"
       inkscape:connector-curvature="0"
       sodipodi:nodetypes="cc" />
    <path
       inkscape:original-d="m 73.321591,63.61225 c 0,0 -3.773944,4.054893 -4.5676,7.21956"
       inkscape:path-effect="#path-effect4633-7-7-7"
       style="fill:#000000;fill-rule:nonzero;stroke:none;stroke-width:0.26631868px;stroke-linecap:butt;stroke-linejoin:miter;stroke-opacity:1"
       d="m 73.352251,63.640786 c 6.93e-4,-0.0017 -0.910513,1.042271 -1.913318,2.471085 -0.501984,0.715237 -1.025623,1.524881 -1.471918,2.349577 -0.447064,0.826115 -0.811469,1.658026 -1.003303,2.422957 l -0.262316,0.157126 -0.157126,-0.262316 c 0.205097,-0.817812 0.609948,-1.67892 1.093719,-2.503343 0.484593,-0.825823 1.053243,-1.623112 1.593901,-2.317183 1.082408,-1.389542 2.058645,-2.373988 2.059041,-2.374975 z"
       id="path4591-5-0-7-9"
       inkscape:connector-curvature="0"
       sodipodi:nodetypes="cc" />
    <ellipse
       style="opacity:1;fill:none;fill-opacity:1;stroke:#000000;stroke-width:1.33898652;stroke-linecap:butt;stroke-linejoin:round;stroke-miterlimit:4;stroke-dasharray:none;stroke-opacity:1"
       id="path4723-2-1-0"
       cx="63.075279"
       cy="72.576134"
       rx="17.454464"
       ry="17.454466" />
    <circle
       style="opacity:1;fill:none;fill-opacity:1;stroke:#000000;stroke-width:0.30019802;stroke-linecap:butt;stroke-linejoin:round;stroke-miterlimit:4;stroke-dasharray:none;stroke-opacity:1"
       id="path4723-6-3-9-7"
       cx="63.074791"
       cy="72.575554"
       r="16.378403" />
  </g>
</svg>
